<svg width="1017" height="257" viewBox="0 0 1017 257" fill="none" xmlns="http://www.w3.org/2000/svg">
<g filter="url(#filter0_f_36_128)">
<path fill-rule="evenodd" clip-rule="evenodd" d="M824.873 66.6649C825.617 64.6453 826 62.5887 826 60.5027C826 32.6108 757.5 10 673 10C607.261 10 551.206 23.6852 529.555 42.8956C500.673 30.1625 456.724 22.0331 407.5 22.0331C330.106 22.0331 265.75 42.1296 252.5 68.6183C237.619 65.6509 220.591 63.9669 202.5 63.9669C144.234 63.9669 97 81.4352 97 102.983C97 124.47 143.964 141.9 202 142H202.5H863H863.5C921.766 142 969 124.532 969 102.983C969 81.4352 921.766 63.9669 863.5 63.9669C849.865 63.9669 836.835 64.9234 824.873 66.6649Z" fill="url(#paint0_linear_36_128)" fill-opacity="0.7"/>
</g>
<g filter="url(#filter1_f_36_128)">
<path fill-rule="evenodd" clip-rule="evenodd" d="M345.556 212.123C345.899 211.192 346.076 210.244 346.076 209.282C346.076 196.424 314.496 186 275.541 186C245.235 186 219.393 192.309 209.412 201.165C196.097 195.295 175.836 191.547 153.144 191.547C117.464 191.547 87.7958 200.812 81.687 213.024C74.8269 211.656 66.9768 210.879 58.6364 210.879C31.7753 210.879 10 218.932 10 228.866C10 238.772 31.6508 246.807 58.406 246.853V246.853H58.5517L58.6364 246.853L58.7212 246.853H363.133L363.293 246.853L363.364 246.853C390.225 246.853 412 238.8 412 228.866C412 218.932 390.225 210.879 363.364 210.879C357.078 210.879 351.071 211.32 345.556 212.123Z" fill="url(#paint1_linear_36_128)" fill-opacity="0.7"/>
</g>
<g filter="url(#filter2_f_36_128)">
<path fill-rule="evenodd" clip-rule="evenodd" d="M924.564 204.196C924.987 203.048 925.204 201.88 925.204 200.695C925.204 184.847 886.284 172 838.273 172C800.921 172 769.072 179.776 756.77 190.691C740.36 183.456 715.389 178.837 687.421 178.837C643.447 178.837 606.881 190.255 599.352 205.306C590.897 203.62 581.222 202.663 570.943 202.663C537.837 202.663 511 212.588 511 224.831C511 237.04 537.684 246.943 570.659 247V247H570.856L570.943 247L571.03 247H946.227C946.322 247 946.417 247 946.512 247C979.617 247 1006.45 237.075 1006.45 224.831C1006.45 212.588 979.617 202.663 946.512 202.663C938.765 202.663 931.361 203.206 924.564 204.196Z" fill="url(#paint2_linear_36_128)" fill-opacity="0.7"/>
</g>
<defs>
<filter id="filter0_f_36_128" x="87" y="0" width="892" height="152" filterUnits="userSpaceOnUse" color-interpolation-filters="sRGB">
<feFlood flood-opacity="0" result="BackgroundImageFix"/>
<feBlend mode="normal" in="SourceGraphic" in2="BackgroundImageFix" result="shape"/>
<feGaussianBlur stdDeviation="5" result="effect1_foregroundBlur_36_128"/>
</filter>
<filter id="filter1_f_36_128" x="0" y="176" width="422" height="80.8532" filterUnits="userSpaceOnUse" color-interpolation-filters="sRGB">
<feFlood flood-opacity="0" result="BackgroundImageFix"/>
<feBlend mode="normal" in="SourceGraphic" in2="BackgroundImageFix" result="shape"/>
<feGaussianBlur stdDeviation="5" result="effect1_foregroundBlur_36_128"/>
</filter>
<filter id="filter2_f_36_128" x="501" y="162" width="515.455" height="95" filterUnits="userSpaceOnUse" color-interpolation-filters="sRGB">
<feFlood flood-opacity="0" result="BackgroundImageFix"/>
<feBlend mode="normal" in="SourceGraphic" in2="BackgroundImageFix" result="shape"/>
<feGaussianBlur stdDeviation="5" result="effect1_foregroundBlur_36_128"/>
</filter>
<linearGradient id="paint0_linear_36_128" x1="1114.08" y1="44.304" x2="537.44" y2="602.995" gradientUnits="userSpaceOnUse">
<stop offset="0.045" stop-color="#5DC5E8"/>
<stop offset="0.48" stop-color="#9BCFE1"/>
<stop offset="0.98" stop-color="#5DC5E8"/>
</linearGradient>
<linearGradient id="paint1_linear_36_128" x1="478.883" y1="201.814" x2="213.047" y2="459.376" gradientUnits="userSpaceOnUse">
<stop offset="0.045" stop-color="#5DC5E8"/>
<stop offset="0.48" stop-color="#9BCFE1"/>
<stop offset="0.98" stop-color="#5DC5E8"/>
</linearGradient>
<linearGradient id="paint2_linear_36_128" x1="1088.89" y1="191.491" x2="761.25" y2="508.929" gradientUnits="userSpaceOnUse">
<stop offset="0.045" stop-color="#5DC5E8"/>
<stop offset="0.48" stop-color="#9BCFE1"/>
<stop offset="0.98" stop-color="#5DC5E8"/>
</linearGradient>
</defs>
</svg>
