<svg width="558" height="457" viewBox="0 0 558 457" fill="none" xmlns="http://www.w3.org/2000/svg">
<path d="M215.503 430.943C213.234 436.402 206.971 438.991 201.509 436.726C195.995 434.44 193.413 428.088 195.769 422.603L277 233.5L284.675 251.728C286.798 256.771 287.86 259.292 287.701 261.922C287.542 264.551 286.185 266.926 283.471 271.677L277 283L215.503 430.943Z" fill="url(#paint0_linear_4_106)"/>
<path d="M208.158 413.324C214.133 413.05 219.375 417.72 218.007 423.543C216.308 430.774 212.466 437.546 206.778 443.125C198.342 451.398 186.534 456.369 173.953 456.944C161.372 457.519 149.048 453.652 139.692 446.193C133.45 441.216 128.87 434.913 126.32 427.965C124.221 422.248 129.037 416.942 135.12 416.664C141.095 416.39 146.013 421.277 149.272 426.293C150.606 428.346 152.308 430.22 154.333 431.835C159.383 435.86 166.034 437.947 172.824 437.637C179.614 437.326 185.986 434.644 190.539 430.179C192.279 428.472 193.699 426.559 194.77 424.511C197.591 419.114 202.074 413.602 208.158 413.324Z" fill="url(#paint1_linear_4_106)"/>
<path d="M76.4504 38.5193C82.2768 38.7051 87.3245 34.0544 85.7421 28.4439C85.1041 26.1818 84.2263 23.9698 83.1157 21.8378C80.3399 16.5096 76.1865 11.83 70.9893 8.17494C65.792 4.5199 59.6956 1.9913 53.1899 0.792255C46.6842 -0.406795 39.9504 -0.242872 33.5295 1.27085C27.1086 2.78458 21.1796 5.60592 16.2186 9.50825C11.2576 13.4106 7.40298 18.2851 4.96435 23.7403C2.52572 29.1955 1.57105 35.0793 2.17703 40.9191C2.4748 43.7888 3.14534 46.6085 4.16816 49.3246C6.002 54.1944 11.898 55.4674 16.4553 52.9558L18.6828 51.7282C22.8383 49.4381 23.8282 43.9289 23.3385 39.2096C23.0355 36.2897 23.5129 33.3478 24.7322 30.6202C25.9515 27.8926 27.8788 25.4553 30.3593 23.5041C32.8398 21.553 35.8043 20.1423 39.0148 19.3854C42.2252 18.6286 45.5921 18.5466 48.8449 19.1461C52.0978 19.7457 55.146 21.01 57.7446 22.8375C60.3433 24.665 62.4199 27.0048 63.8078 29.6689C66.0535 33.9796 69.6979 38.3039 74.5559 38.4588L76.4504 38.5193Z" fill="url(#paint2_linear_4_106)"/>
<path d="M198.375 37.5C204.243 37.5 209.15 32.6288 207.318 27.0542C206.591 24.8422 205.632 22.6869 204.449 20.617C201.457 15.3807 197.115 10.8365 191.771 7.34959C186.428 3.86263 180.232 1.53004 173.681 0.539181C167.13 -0.451677 160.408 -0.0731825 154.053 1.64426C147.698 3.3617 141.889 6.37022 137.091 10.4282C132.293 14.4861 128.64 19.4803 126.427 25.0097C124.213 30.5391 123.5 36.4495 124.345 42.2662C124.765 45.1597 125.565 47.9899 126.721 50.7018C128.747 55.455 134.637 56.5057 139.075 53.8588L141.229 52.5736C145.312 50.1386 146.105 44.587 145.422 39.8831C145 36.9748 145.357 34.0196 146.463 31.2549C147.57 28.4902 149.396 25.9931 151.795 23.9641C154.194 21.9351 157.099 20.4309 160.277 19.5721C163.454 18.7134 166.815 18.5242 170.091 19.0196C173.366 19.515 176.464 20.6813 179.136 22.4248C181.807 24.1683 183.978 26.4403 185.475 29.0585C187.897 33.2985 191.709 37.5 196.592 37.5H198.375Z" fill="url(#paint3_linear_4_106)"/>
<rect y="38.8279" width="21.2471" height="123.491" rx="10.6235" transform="rotate(-21.6182 0 38.8279)" fill="url(#paint4_linear_4_106)"/>
<rect x="122" y="38.8279" width="21.2471" height="125.277" rx="10.6235" transform="rotate(-21.6182 122 38.8279)" fill="url(#paint5_linear_4_106)"/>
<rect x="61" y="22.3454" width="21.2471" height="144.91" rx="10.6235" transform="rotate(-23.1275 61 22.3454)" fill="url(#paint6_linear_4_106)"/>
<rect x="49.9805" y="248.934" width="21.2471" height="210.926" rx="10.6235" transform="rotate(-23.1275 49.9805 248.934)" fill="url(#paint7_linear_4_106)"/>
<rect x="120" y="247.725" width="21.2471" height="121.016" rx="10.6235" transform="rotate(-21.3189 120 247.725)" fill="url(#paint8_linear_4_106)"/>
<rect x="183" y="22.3454" width="21.2471" height="138.854" rx="10.6235" transform="rotate(-23.1275 183 22.3454)" fill="url(#paint9_linear_4_106)"/>
<rect x="10" y="154" width="23" height="197" rx="11.2804" transform="rotate(-90 10 154)" fill="url(#paint10_linear_4_106)"/>
<rect x="10" y="262" width="23" height="205" rx="11.2804" transform="rotate(-90 10 262)" fill="url(#paint11_linear_4_106)"/>
<rect x="10" y="209" width="23" height="221" rx="11.2804" transform="rotate(-90 10 209)" fill="url(#paint12_linear_4_106)"/>
<path d="M280.286 84.7706L278.5 21.5L133.844 422.853C131.724 428.735 134.792 435.219 140.685 437.309L141.102 437.457C146.951 439.533 153.378 436.493 155.484 430.655L280.286 84.7706Z" fill="url(#paint13_linear_4_106)"/>
<path d="M343.624 434.997C346.049 440.422 352.411 442.857 357.839 440.437C363.279 438.011 365.716 431.628 363.277 426.194L277 234L270.034 255.806C268.764 259.782 268.129 261.771 268.229 263.809C268.328 265.848 269.154 267.765 270.806 271.599L276.529 284.878L343.624 434.997Z" fill="url(#paint14_linear_4_106)"/>
<path d="M348.866 413.324C342.891 413.05 337.648 417.72 339.016 423.543C340.716 430.774 344.557 437.546 350.246 443.125C358.682 451.398 370.489 456.369 383.07 456.944C395.651 457.519 407.975 453.652 417.331 446.193C423.574 441.216 428.154 434.913 430.704 427.965C432.802 422.248 427.987 416.942 421.904 416.664C415.929 416.39 411.01 421.277 407.751 426.293C406.417 428.346 404.716 430.22 402.69 431.835C397.641 435.86 390.989 437.947 384.199 437.637C377.41 437.326 371.037 434.644 366.484 430.179C364.744 428.472 363.325 426.559 362.254 424.511C359.433 419.114 354.949 413.602 348.866 413.324Z" fill="url(#paint15_linear_4_106)"/>
<path d="M480.573 38.5193C474.747 38.7051 469.699 34.0544 471.281 28.4439C471.919 26.1818 472.797 23.9698 473.908 21.8378C476.684 16.5096 480.837 11.83 486.034 8.17494C491.232 4.5199 497.328 1.9913 503.834 0.792255C510.339 -0.406795 517.073 -0.242872 523.494 1.27085C529.915 2.78458 535.844 5.60592 540.805 9.50825C545.766 13.4106 549.621 18.2851 552.059 23.7403C554.498 29.1955 555.453 35.0793 554.847 40.9191C554.549 43.7888 553.878 46.6085 552.855 49.3246C551.022 54.1944 545.126 55.4674 540.568 52.9558L538.341 51.7282C534.185 49.4381 533.195 43.9289 533.685 39.2096C533.988 36.2897 533.511 33.3478 532.291 30.6202C531.072 27.8926 529.145 25.4553 526.664 23.5041C524.184 21.553 521.219 20.1423 518.009 19.3854C514.798 18.6286 511.431 18.5466 508.179 19.1461C504.926 19.7457 501.878 21.01 499.279 22.8375C496.68 24.665 494.604 27.0048 493.216 29.6689C490.97 33.9796 487.326 38.3039 482.468 38.4588L480.573 38.5193Z" fill="url(#paint16_linear_4_106)"/>
<path d="M358.649 37.5C352.781 37.5 347.873 32.6288 349.706 27.0542C350.433 24.8422 351.392 22.6869 352.574 20.617C355.567 15.3807 359.909 10.8365 365.252 7.34959C370.596 3.86263 376.792 1.53004 383.342 0.539181C389.893 -0.451677 396.616 -0.0731825 402.97 1.64426C409.325 3.3617 415.135 6.37022 419.933 10.4282C424.731 14.4861 428.383 19.4803 430.597 25.0097C432.81 30.5391 433.524 36.4495 432.679 42.2662C432.259 45.1597 431.459 47.9899 430.303 50.7018C428.277 55.455 422.386 56.5057 417.949 53.8588L415.794 52.5736C411.712 50.1386 410.918 44.587 411.601 39.8831C412.024 36.9748 411.667 34.0196 410.56 31.2549C409.453 28.4902 407.627 25.9931 405.228 23.9641C402.829 21.9351 399.924 20.4309 396.747 19.5721C393.57 18.7134 390.208 18.5242 386.933 19.0196C383.658 19.515 380.56 20.6813 377.888 22.4248C375.216 24.1683 373.045 26.4403 371.549 29.0585C369.126 33.2985 365.315 37.5 360.431 37.5H358.649Z" fill="url(#paint17_linear_4_106)"/>
<path d="M358.649 37.5C352.781 37.5 347.873 32.6288 349.706 27.0542C350.433 24.8422 351.392 22.6869 352.574 20.617C355.567 15.3807 359.909 10.8365 365.252 7.34959C370.596 3.86263 376.792 1.53004 383.342 0.539181C389.893 -0.451677 396.616 -0.0731825 402.97 1.64426C409.325 3.3617 415.135 6.37022 419.933 10.4282C424.731 14.4861 428.383 19.4803 430.597 25.0097C432.81 30.5391 433.524 36.4495 432.679 42.2662C432.259 45.1597 431.459 47.9899 430.303 50.7018C428.277 55.455 422.386 56.5057 417.949 53.8588L415.794 52.5736C411.712 50.1386 410.918 44.587 411.601 39.8831C412.024 36.9748 411.667 34.0196 410.56 31.2549C409.453 28.4902 407.627 25.9931 405.228 23.9641C402.829 21.9351 399.924 20.4309 396.747 19.5721C393.57 18.7134 390.208 18.5242 386.933 19.0196C383.658 19.515 380.56 20.6813 377.888 22.4248C375.216 24.1683 373.045 26.4403 371.549 29.0585C369.126 33.2985 365.315 37.5 360.431 37.5H358.649Z" fill="url(#paint18_linear_4_106)"/>
<rect width="21.2471" height="123.491" rx="10.6235" transform="matrix(-0.92966 -0.36842 -0.36842 0.92966 557.024 38.8279)" fill="url(#paint19_linear_4_106)"/>
<rect width="21.2471" height="125.277" rx="10.6235" transform="matrix(-0.92966 -0.36842 -0.36842 0.92966 435.024 38.8279)" fill="url(#paint20_linear_4_106)"/>
<rect width="21.2471" height="144.91" rx="10.6235" transform="matrix(-0.919633 -0.392779 -0.392779 0.919633 496.024 22.3454)" fill="url(#paint21_linear_4_106)"/>
<rect width="21.2471" height="210.926" rx="10.6235" transform="matrix(-0.919633 -0.392779 -0.392779 0.919633 507.043 248.934)" fill="url(#paint22_linear_4_106)"/>
<rect width="21.2471" height="120.936" rx="10.6235" transform="matrix(-0.931572 -0.363558 -0.363558 0.931572 437.024 247.725)" fill="url(#paint23_linear_4_106)"/>
<rect width="21.2471" height="138.854" rx="10.6235" transform="matrix(-0.919633 -0.392779 -0.392779 0.919633 374.024 22.3454)" fill="url(#paint24_linear_4_106)"/>
<rect width="23" height="197" rx="11.2804" transform="matrix(0 -1 -1 0 547.024 154)" fill="url(#paint25_linear_4_106)"/>
<rect width="23" height="205" rx="11.2804" transform="matrix(0 -1 -1 0 547.024 262)" fill="url(#paint26_linear_4_106)"/>
<rect width="23" height="221" rx="11.2804" transform="matrix(0 -1 -1 0 547.024 209)" fill="url(#paint27_linear_4_106)"/>
<path d="M276.738 84.7706L278.524 21.5L423.18 422.853C425.299 428.735 422.231 435.219 416.339 437.309L415.922 437.457C410.072 439.533 403.646 436.493 401.539 430.655L276.738 84.7706Z" fill="url(#paint28_linear_4_106)"/>
<defs>
<linearGradient id="paint0_linear_4_106" x1="202.919" y1="437.311" x2="285.891" y2="237.186" gradientUnits="userSpaceOnUse">
<stop offset="0.21" stop-color="#C9E4E7"/>
<stop offset="0.46" stop-color="#FFD88C"/>
<stop offset="0.825" stop-color="#C9E4E7"/>
</linearGradient>
<linearGradient id="paint1_linear_4_106" x1="124" y1="411.378" x2="219" y2="418.622" gradientUnits="userSpaceOnUse">
<stop offset="0.295" stop-color="#C9E4E7"/>
<stop offset="0.56" stop-color="#FFD88C"/>
<stop offset="0.75" stop-color="#C9E4E7"/>
</linearGradient>
<linearGradient id="paint2_linear_4_106" x1="87" y1="37.5" x2="2" y2="37.5" gradientUnits="userSpaceOnUse">
<stop offset="0.245" stop-color="#C9E4E7"/>
<stop offset="0.56" stop-color="#FFD88C"/>
<stop offset="0.83" stop-color="#C9E4E7"/>
</linearGradient>
<linearGradient id="paint3_linear_4_106" x1="209" y1="37.5" x2="124" y2="37.5" gradientUnits="userSpaceOnUse">
<stop offset="0.245" stop-color="#C9E4E7"/>
<stop offset="0.56" stop-color="#FFD88C"/>
<stop offset="0.83" stop-color="#C9E4E7"/>
</linearGradient>
<linearGradient id="paint4_linear_4_106" x1="10.6235" y1="38.8279" x2="10.6235" y2="162.319" gradientUnits="userSpaceOnUse">
<stop offset="0.21" stop-color="#C9E4E7"/>
<stop offset="0.46" stop-color="#FFD88C"/>
<stop offset="0.825" stop-color="#C9E4E7"/>
</linearGradient>
<linearGradient id="paint5_linear_4_106" x1="132.624" y1="38.8279" x2="132.624" y2="164.105" gradientUnits="userSpaceOnUse">
<stop offset="0.21" stop-color="#C9E4E7"/>
<stop offset="0.46" stop-color="#FFD88C"/>
<stop offset="0.825" stop-color="#C9E4E7"/>
</linearGradient>
<linearGradient id="paint6_linear_4_106" x1="71.6235" y1="22.3454" x2="71.6235" y2="167.255" gradientUnits="userSpaceOnUse">
<stop offset="0.21" stop-color="#C9E4E7"/>
</linearGradient>
<linearGradient id="paint7_linear_4_106" x1="60.604" y1="248.934" x2="60.604" y2="459.86" gradientUnits="userSpaceOnUse">
<stop offset="0.21" stop-color="#C9E4E7"/>
<stop offset="0.46" stop-color="#FFD88C"/>
<stop offset="0.825" stop-color="#C9E4E7"/>
</linearGradient>
<linearGradient id="paint8_linear_4_106" x1="130.624" y1="247.725" x2="130.624" y2="368.741" gradientUnits="userSpaceOnUse">
<stop offset="0.21" stop-color="#C9E4E7"/>
<stop offset="0.46" stop-color="#FFD88C"/>
<stop offset="0.825" stop-color="#C9E4E7"/>
</linearGradient>
<linearGradient id="paint9_linear_4_106" x1="193.624" y1="22.3454" x2="193.624" y2="161.199" gradientUnits="userSpaceOnUse">
<stop offset="0.21" stop-color="#C9E4E7"/>
<stop offset="0.46" stop-color="#FFD88C"/>
<stop offset="0.825" stop-color="#C9E4E7"/>
</linearGradient>
<linearGradient id="paint10_linear_4_106" x1="21.5" y1="154" x2="21.5" y2="351" gradientUnits="userSpaceOnUse">
<stop offset="0.21" stop-color="#C9E4E7"/>
</linearGradient>
<linearGradient id="paint11_linear_4_106" x1="21.5" y1="262" x2="21.5" y2="467" gradientUnits="userSpaceOnUse">
<stop offset="0.335" stop-color="#C9E4E7"/>
<stop offset="0.66" stop-color="#FFD88C"/>
<stop offset="0.905" stop-color="#F0DBA3"/>
</linearGradient>
<linearGradient id="paint12_linear_4_106" x1="21.5" y1="209" x2="21.5" y2="430" gradientUnits="userSpaceOnUse">
<stop offset="0.335" stop-color="#C9E4E7"/>
<stop offset="0.66" stop-color="#FFD88C"/>
<stop offset="0.905" stop-color="#F8D997"/>
</linearGradient>
<linearGradient id="paint13_linear_4_106" x1="288.228" y1="24.9512" x2="141.795" y2="437.703" gradientUnits="userSpaceOnUse">
<stop offset="0.21" stop-color="#C9E4E7"/>
<stop offset="0.46" stop-color="#FFD88C"/>
<stop offset="0.825" stop-color="#C9E4E7"/>
</linearGradient>
<linearGradient id="paint14_linear_4_106" x1="357.784" y1="440.461" x2="267.597" y2="238.193" gradientUnits="userSpaceOnUse">
<stop offset="0.21" stop-color="#C9E4E7"/>
<stop offset="0.46" stop-color="#FFD88C"/>
<stop offset="0.825" stop-color="#C9E4E7"/>
</linearGradient>
<linearGradient id="paint15_linear_4_106" x1="433.024" y1="411.378" x2="338.024" y2="418.622" gradientUnits="userSpaceOnUse">
<stop offset="0.295" stop-color="#C9E4E7"/>
<stop offset="0.56" stop-color="#FFD88C"/>
<stop offset="0.75" stop-color="#C9E4E7"/>
</linearGradient>
<linearGradient id="paint16_linear_4_106" x1="470.024" y1="37.5" x2="555.024" y2="37.5" gradientUnits="userSpaceOnUse">
<stop offset="0.21" stop-color="#C9E4E7"/>
<stop offset="0.56" stop-color="#FFD88C"/>
<stop offset="0.83" stop-color="#C9E4E7"/>
</linearGradient>
<linearGradient id="paint17_linear_4_106" x1="390.524" y1="0" x2="390.524" y2="75" gradientUnits="userSpaceOnUse">
<stop offset="0.21" stop-color="#C9E4E7"/>
</linearGradient>
<linearGradient id="paint18_linear_4_106" x1="348.024" y1="37.5" x2="433.024" y2="37.5" gradientUnits="userSpaceOnUse">
<stop offset="0.245" stop-color="#C9E4E7"/>
<stop offset="0.56" stop-color="#FFD88C"/>
<stop offset="0.83" stop-color="#C9E4E7"/>
</linearGradient>
<linearGradient id="paint19_linear_4_106" x1="10.6235" y1="0" x2="10.6235" y2="123.491" gradientUnits="userSpaceOnUse">
<stop offset="0.21" stop-color="#C9E4E7"/>
<stop offset="0.46" stop-color="#FFD88C"/>
<stop offset="0.825" stop-color="#C9E4E7"/>
</linearGradient>
<linearGradient id="paint20_linear_4_106" x1="10.6235" y1="0" x2="10.6235" y2="125.277" gradientUnits="userSpaceOnUse">
<stop offset="0.21" stop-color="#C9E4E7"/>
<stop offset="0.46" stop-color="#FFD88C"/>
<stop offset="0.825" stop-color="#C9E4E7"/>
</linearGradient>
<linearGradient id="paint21_linear_4_106" x1="10.6235" y1="0" x2="10.6235" y2="144.91" gradientUnits="userSpaceOnUse">
<stop offset="0.21" stop-color="#C9E4E7"/>
<stop offset="0.46" stop-color="#FFD88C"/>
<stop offset="0.825" stop-color="#C9E4E7"/>
</linearGradient>
<linearGradient id="paint22_linear_4_106" x1="10.6235" y1="0" x2="10.6235" y2="210.926" gradientUnits="userSpaceOnUse">
<stop offset="0.21" stop-color="#C9E4E7"/>
<stop offset="0.46" stop-color="#FFD88C"/>
<stop offset="0.825" stop-color="#C9E4E7"/>
</linearGradient>
<linearGradient id="paint23_linear_4_106" x1="10.6235" y1="0" x2="10.6235" y2="120.936" gradientUnits="userSpaceOnUse">
<stop offset="0.21" stop-color="#C9E4E7"/>
<stop offset="0.46" stop-color="#FFD88C"/>
<stop offset="0.825" stop-color="#C9E4E7"/>
</linearGradient>
<linearGradient id="paint24_linear_4_106" x1="10.6235" y1="0" x2="10.6235" y2="138.854" gradientUnits="userSpaceOnUse">
<stop offset="0.21" stop-color="#C9E4E7"/>
<stop offset="0.46" stop-color="#FFD88C"/>
<stop offset="0.825" stop-color="#C9E4E7"/>
</linearGradient>
<linearGradient id="paint25_linear_4_106" x1="11.5" y1="0" x2="11.5" y2="197" gradientUnits="userSpaceOnUse">
<stop offset="0.21" stop-color="#C9E4E7"/>
<stop offset="0.46" stop-color="#FFD88C"/>
<stop offset="0.825" stop-color="#C9E4E7"/>
</linearGradient>
<linearGradient id="paint26_linear_4_106" x1="11.5" y1="0" x2="11.5" y2="205" gradientUnits="userSpaceOnUse">
<stop offset="0.335" stop-color="#C9E4E7"/>
<stop offset="0.66" stop-color="#FFD88C"/>
<stop offset="0.905" stop-color="#F0DBA3"/>
</linearGradient>
<linearGradient id="paint27_linear_4_106" x1="11.5" y1="0" x2="11.5" y2="221" gradientUnits="userSpaceOnUse">
<stop offset="0.335" stop-color="#C9E4E7"/>
<stop offset="0.66" stop-color="#FFD88C"/>
<stop offset="0.905" stop-color="#F8D997"/>
</linearGradient>
<linearGradient id="paint28_linear_4_106" x1="268.795" y1="24.9512" x2="415.228" y2="437.703" gradientUnits="userSpaceOnUse">
<stop offset="0.21" stop-color="#C9E4E7"/>
<stop offset="0.46" stop-color="#FFD88C"/>
<stop offset="0.825" stop-color="#C9E4E7"/>
</linearGradient>
</defs>
</svg>
