<svg width="280" height="230" viewBox="0 0 280 230" fill="none" xmlns="http://www.w3.org/2000/svg">
<path d="M108.327 216.902C107.187 219.646 104.038 220.947 101.293 219.809V219.809C98.521 218.66 97.2233 215.467 98.4076 212.71L139.24 117.653L140.947 121.707C143.07 126.75 144.132 129.271 143.973 131.901C143.814 134.53 142.457 136.905 139.743 141.656L139.24 142.535L108.327 216.902Z" fill="url(#paint0_linear_44_2)"/>
<path d="M104.635 208.045C107.639 207.908 110.274 210.255 109.586 213.182C108.732 216.817 106.801 220.221 103.941 223.025C99.7007 227.184 93.7656 229.683 87.4415 229.972C81.1174 230.261 74.9224 228.317 70.2193 224.568C67.0815 222.066 64.7793 218.897 63.4973 215.405C62.4424 212.531 64.863 209.864 67.921 209.724V209.724C70.9245 209.587 73.3969 212.043 75.0351 214.564C75.7056 215.596 76.5608 216.538 77.5791 217.35C80.1173 219.374 83.4607 220.423 86.8738 220.267C90.2869 220.111 93.49 218.762 95.7786 216.518C96.6533 215.66 97.367 214.698 97.9051 213.669C99.3233 210.956 101.577 208.185 104.635 208.045V208.045Z" fill="url(#paint1_linear_44_2)"/>
<path d="M38.4295 19.6416C41.3583 19.735 43.8956 17.3972 43.1001 14.577C42.7794 13.4399 42.3382 12.328 41.7799 11.2563C40.3846 8.57791 38.2968 6.22561 35.6843 4.38833C33.0718 2.55104 30.0073 1.27999 26.7371 0.677261C23.4668 0.0745324 20.082 0.156931 16.8544 0.917839C13.6268 1.67875 10.6464 3.09695 8.15265 5.05854C5.6589 7.02013 3.7213 9.47042 2.49547 12.2126C1.26964 14.9548 0.78975 17.9124 1.09436 20.8479C1.24404 22.2904 1.5811 23.7078 2.09524 25.0731C3.01707 27.521 5.98081 28.1609 8.27166 26.8984L9.39136 26.2813C11.4802 25.1301 11.9778 22.3609 11.7316 19.9886V19.9886C11.5793 18.5208 11.8193 17.042 12.4322 15.6709C13.0451 14.2998 14.0139 13.0747 15.2608 12.0939C16.5077 11.1131 17.9978 10.404 19.6116 10.0235C21.2254 9.64307 22.9179 9.60187 24.553 9.90323C26.1881 10.2046 27.7204 10.8401 29.0266 11.7588C30.3329 12.6774 31.3768 13.8536 32.0744 15.1927V15.1927C33.2033 17.3596 35.0352 19.5333 37.4772 19.6112L38.4295 19.6416Z" fill="url(#paint2_linear_44_2)"/>
<path d="M99.7175 19.1292C102.667 19.1292 105.134 16.6806 104.213 13.8784C103.847 12.7665 103.365 11.6831 102.771 10.6426C101.267 8.01045 99.084 5.72624 96.3979 3.97345C93.7119 2.22065 90.5974 1.04812 87.3046 0.550048C84.0118 0.0519715 80.6325 0.24223 77.4382 1.10554C74.2438 1.96885 71.3235 3.48115 68.9117 5.52096C66.4999 7.56077 64.6639 10.0712 63.5511 12.8507C62.4384 15.6302 62.0799 18.6012 62.5046 21.525C62.7158 22.9795 63.1179 24.4022 63.699 25.7654C64.7175 28.1547 67.6783 28.6828 69.909 27.3523L70.992 26.7063C73.044 25.4823 73.4431 22.6916 73.0997 20.3271V20.3271C72.8874 18.8652 73.0666 17.3797 73.623 15.99C74.1794 14.6002 75.0974 13.345 76.3033 12.3251C77.5092 11.3052 78.9693 10.549 80.5665 10.1174C82.1637 9.68572 83.8533 9.59059 85.4997 9.83963C87.1461 10.0887 88.7034 10.6749 90.0464 11.5513C91.3894 12.4277 92.4808 13.5698 93.2328 14.8859V14.8859C94.4507 17.0172 96.3666 19.1292 98.8213 19.1292H99.7175Z" fill="url(#paint3_linear_44_2)"/>
<rect y="19.7967" width="10.6803" height="62.0754" rx="5.34016" transform="rotate(-21.6182 0 19.7967)" fill="url(#paint4_linear_44_2)"/>
<rect x="61.3259" y="19.7967" width="10.6803" height="62.9734" rx="5.34016" transform="rotate(-21.6182 61.3259 19.7967)" fill="url(#paint5_linear_44_2)"/>
<rect x="30.663" y="11.5114" width="10.6803" height="72.8421" rx="5.34016" transform="rotate(-23.1275 30.663 11.5114)" fill="url(#paint6_linear_44_2)"/>
<rect x="25.1238" y="125.411" width="10.6803" height="106.027" rx="5.34016" transform="rotate(-23.1275 25.1238 125.411)" fill="url(#paint7_linear_44_2)"/>
<rect x="60.3206" y="124.803" width="10.6803" height="60.8315" rx="5.34016" transform="rotate(-21.3189 60.3206 124.803)" fill="url(#paint8_linear_44_2)"/>
<rect x="91.989" y="11.5114" width="10.6803" height="69.7979" rx="5.34016" transform="rotate(-23.1275 91.989 11.5114)" fill="url(#paint9_linear_44_2)"/>
<rect x="5.02673" y="77.6905" width="11.5615" height="99.0263" rx="5.78073" transform="rotate(-90 5.02673 77.6905)" fill="url(#paint10_linear_44_2)"/>
<rect x="5.02673" y="131.979" width="11.5615" height="103.048" rx="5.78073" transform="rotate(-90 5.02673 131.979)" fill="url(#paint11_linear_44_2)"/>
<rect x="5.02673" y="105.337" width="11.5615" height="111.09" rx="5.78073" transform="rotate(-90 5.02673 105.337)" fill="url(#paint12_linear_44_2)"/>
<path d="M140.892 42.8908L139.994 11.0865L67.3176 212.73C66.231 215.745 67.8036 219.068 70.8236 220.139V220.139C73.8216 221.203 77.1155 219.645 78.1952 216.653L140.892 42.8908Z" fill="url(#paint13_linear_44_2)"/>
<path d="M172.73 218.94C173.949 221.667 177.147 222.891 179.875 221.674V221.674C182.61 220.455 183.835 217.246 182.609 214.515L139.24 117.904L137.016 124.866C135.746 128.843 135.111 130.831 135.21 132.87C135.31 134.909 136.136 136.826 137.788 140.659L139.003 143.479L172.73 218.94Z" fill="url(#paint14_linear_44_2)"/>
<path d="M175.365 208.045C172.361 207.908 169.726 210.255 170.414 213.182C171.268 216.817 173.199 220.221 176.059 223.025C180.299 227.184 186.234 229.683 192.559 229.972C198.883 230.261 205.078 228.317 209.781 224.568C212.918 222.066 215.221 218.897 216.503 215.405C217.558 212.531 215.137 209.864 212.079 209.724V209.724C209.076 209.587 206.603 212.043 204.965 214.564C204.294 215.596 203.439 216.538 202.421 217.35C199.883 219.374 196.539 220.423 193.126 220.267C189.713 220.111 186.51 218.762 184.221 216.518C183.347 215.66 182.633 214.698 182.095 213.669C180.677 210.956 178.423 208.185 175.365 208.045V208.045Z" fill="url(#paint15_linear_44_2)"/>
<path d="M241.571 19.6416C238.642 19.735 236.104 17.3972 236.9 14.577C237.221 13.4399 237.662 12.328 238.22 11.2563C239.615 8.57791 241.703 6.22561 244.316 4.38833C246.928 2.55104 249.993 1.27999 253.263 0.677261C256.533 0.0745324 259.918 0.156931 263.146 0.917839C266.373 1.67875 269.354 3.09695 271.847 5.05854C274.341 7.02013 276.279 9.47042 277.505 12.2126C278.73 14.9548 279.21 17.9124 278.906 20.8479C278.756 22.2904 278.419 23.7078 277.905 25.0731C276.983 27.521 274.019 28.1609 271.728 26.8984L270.609 26.2813C268.52 25.1301 268.022 22.3609 268.268 19.9886V19.9886C268.421 18.5208 268.181 17.042 267.568 15.6709C266.955 14.2998 265.986 13.0747 264.739 12.0939C263.492 11.1131 262.002 10.404 260.388 10.0235C258.775 9.64307 257.082 9.60187 255.447 9.90323C253.812 10.2046 252.28 10.8401 250.973 11.7588C249.667 12.6774 248.623 13.8536 247.926 15.1927V15.1927C246.797 17.3596 244.965 19.5333 242.523 19.6112L241.571 19.6416Z" fill="url(#paint16_linear_44_2)"/>
<path d="M180.282 19.1292C177.333 19.1292 174.866 16.6806 175.787 13.8784C176.153 12.7665 176.635 11.6831 177.229 10.6426C178.733 8.01045 180.916 5.72624 183.602 3.97345C186.288 2.22065 189.403 1.04812 192.695 0.550048C195.988 0.0519715 199.368 0.24223 202.562 1.10554C205.756 1.96885 208.677 3.48115 211.088 5.52096C213.5 7.56077 215.336 10.0712 216.449 12.8507C217.562 15.6302 217.92 18.6012 217.495 21.525C217.284 22.9795 216.882 24.4022 216.301 25.7654C215.283 28.1547 212.322 28.6828 210.091 27.3523L209.008 26.7063C206.956 25.4823 206.557 22.6916 206.9 20.3271V20.3271C207.113 18.8652 206.933 17.3797 206.377 15.99C205.821 14.6002 204.903 13.345 203.697 12.3251C202.491 11.3052 201.031 10.549 199.433 10.1174C197.836 9.68572 196.147 9.59059 194.5 9.83963C192.854 10.0887 191.297 10.6749 189.954 11.5513C188.611 12.4277 187.519 13.5698 186.767 14.8859V14.8859C185.549 17.0172 183.633 19.1292 181.179 19.1292H180.282Z" fill="url(#paint17_linear_44_2)"/>
<path d="M180.282 19.1292C177.333 19.1292 174.866 16.6806 175.787 13.8784C176.153 12.7665 176.635 11.6831 177.229 10.6426C178.733 8.01045 180.916 5.72624 183.602 3.97345C186.288 2.22065 189.403 1.04812 192.695 0.550048C195.988 0.0519715 199.368 0.24223 202.562 1.10554C205.756 1.96885 208.677 3.48115 211.088 5.52096C213.5 7.56077 215.336 10.0712 216.449 12.8507C217.562 15.6302 217.92 18.6012 217.495 21.525C217.284 22.9795 216.882 24.4022 216.301 25.7654C215.283 28.1547 212.322 28.6828 210.091 27.3523L209.008 26.7063C206.956 25.4823 206.557 22.6916 206.9 20.3271V20.3271C207.113 18.8652 206.933 17.3797 206.377 15.99C205.821 14.6002 204.903 13.345 203.697 12.3251C202.491 11.3052 201.031 10.549 199.433 10.1174C197.836 9.68572 196.147 9.59059 194.5 9.83963C192.854 10.0887 191.297 10.6749 189.954 11.5513C188.611 12.4277 187.519 13.5698 186.767 14.8859V14.8859C185.549 17.0172 183.633 19.1292 181.179 19.1292H180.282Z" fill="url(#paint18_linear_44_2)"/>
<rect width="10.6803" height="62.0754" rx="5.34016" transform="matrix(-0.92966 -0.36842 -0.36842 0.92966 280 19.7967)" fill="url(#paint19_linear_44_2)"/>
<rect width="10.6803" height="62.9734" rx="5.34016" transform="matrix(-0.92966 -0.36842 -0.36842 0.92966 218.674 19.7967)" fill="url(#paint20_linear_44_2)"/>
<rect width="10.6803" height="72.8421" rx="5.34016" transform="matrix(-0.919633 -0.392779 -0.392779 0.919633 249.337 11.5114)" fill="url(#paint21_linear_44_2)"/>
<rect width="10.6803" height="106.027" rx="5.34016" transform="matrix(-0.919633 -0.392779 -0.392779 0.919633 254.876 125.411)" fill="url(#paint22_linear_44_2)"/>
<rect width="10.6803" height="60.791" rx="5.34016" transform="matrix(-0.931572 -0.363558 -0.363558 0.931572 219.679 124.803)" fill="url(#paint23_linear_44_2)"/>
<rect width="10.6803" height="69.7979" rx="5.34016" transform="matrix(-0.919633 -0.392779 -0.392779 0.919633 188.011 11.5114)" fill="url(#paint24_linear_44_2)"/>
<rect width="11.5615" height="99.0263" rx="5.78073" transform="matrix(0 -1 -1 0 274.973 77.6905)" fill="url(#paint25_linear_44_2)"/>
<rect width="11.5615" height="103.048" rx="5.78073" transform="matrix(0 -1 -1 0 274.973 131.979)" fill="url(#paint26_linear_44_2)"/>
<rect width="11.5615" height="111.09" rx="5.78073" transform="matrix(0 -1 -1 0 274.973 105.337)" fill="url(#paint27_linear_44_2)"/>
<path d="M139.108 42.8908L140.006 11.0865L212.682 212.73C213.769 215.745 212.196 219.068 209.176 220.139V220.139C206.178 221.203 202.884 219.645 201.805 216.653L139.108 42.8908Z" fill="url(#paint28_linear_44_2)"/>
<defs>
<linearGradient id="paint0_linear_44_2" x1="102.001" y1="220.103" x2="143.709" y2="119.506" gradientUnits="userSpaceOnUse">
<stop offset="0.21" stop-color="#C9E4E7"/>
<stop offset="0.46" stop-color="#FFD88C"/>
<stop offset="0.825" stop-color="#C9E4E7"/>
</linearGradient>
<linearGradient id="paint1_linear_44_2" x1="62.3313" y1="207.067" x2="110.085" y2="210.708" gradientUnits="userSpaceOnUse">
<stop offset="0.295" stop-color="#C9E4E7"/>
<stop offset="0.56" stop-color="#FFD88C"/>
<stop offset="0.75" stop-color="#C9E4E7"/>
</linearGradient>
<linearGradient id="paint2_linear_44_2" x1="43.7325" y1="19.1292" x2="1.00537" y2="19.1292" gradientUnits="userSpaceOnUse">
<stop offset="0.245" stop-color="#C9E4E7"/>
<stop offset="0.56" stop-color="#FFD88C"/>
<stop offset="0.83" stop-color="#C9E4E7"/>
</linearGradient>
<linearGradient id="paint3_linear_44_2" x1="105.058" y1="19.1292" x2="62.3313" y2="19.1292" gradientUnits="userSpaceOnUse">
<stop offset="0.245" stop-color="#C9E4E7"/>
<stop offset="0.56" stop-color="#FFD88C"/>
<stop offset="0.83" stop-color="#C9E4E7"/>
</linearGradient>
<linearGradient id="paint4_linear_44_2" x1="5.34016" y1="19.7967" x2="5.34016" y2="81.8721" gradientUnits="userSpaceOnUse">
<stop offset="0.21" stop-color="#C9E4E7"/>
<stop offset="0.46" stop-color="#FFD88C"/>
<stop offset="0.825" stop-color="#C9E4E7"/>
</linearGradient>
<linearGradient id="paint5_linear_44_2" x1="66.6661" y1="19.7967" x2="66.6661" y2="82.77" gradientUnits="userSpaceOnUse">
<stop offset="0.21" stop-color="#C9E4E7"/>
<stop offset="0.46" stop-color="#FFD88C"/>
<stop offset="0.825" stop-color="#C9E4E7"/>
</linearGradient>
<linearGradient id="paint6_linear_44_2" x1="36.0031" y1="11.5114" x2="36.0031" y2="84.3535" gradientUnits="userSpaceOnUse">
<stop offset="0.21" stop-color="#C9E4E7"/>
</linearGradient>
<linearGradient id="paint7_linear_44_2" x1="30.4639" y1="125.411" x2="30.4639" y2="231.438" gradientUnits="userSpaceOnUse">
<stop offset="0.21" stop-color="#C9E4E7"/>
<stop offset="0.46" stop-color="#FFD88C"/>
<stop offset="0.825" stop-color="#C9E4E7"/>
</linearGradient>
<linearGradient id="paint8_linear_44_2" x1="65.6608" y1="124.803" x2="65.6608" y2="185.635" gradientUnits="userSpaceOnUse">
<stop offset="0.21" stop-color="#C9E4E7"/>
<stop offset="0.46" stop-color="#FFD88C"/>
<stop offset="0.825" stop-color="#C9E4E7"/>
</linearGradient>
<linearGradient id="paint9_linear_44_2" x1="97.3291" y1="11.5114" x2="97.3291" y2="81.3094" gradientUnits="userSpaceOnUse">
<stop offset="0.21" stop-color="#C9E4E7"/>
<stop offset="0.46" stop-color="#FFD88C"/>
<stop offset="0.825" stop-color="#C9E4E7"/>
</linearGradient>
<linearGradient id="paint10_linear_44_2" x1="10.8075" y1="77.6905" x2="10.8075" y2="176.717" gradientUnits="userSpaceOnUse">
<stop offset="0.21" stop-color="#C9E4E7"/>
</linearGradient>
<linearGradient id="paint11_linear_44_2" x1="10.8075" y1="131.979" x2="10.8075" y2="235.027" gradientUnits="userSpaceOnUse">
<stop offset="0.335" stop-color="#C9E4E7"/>
<stop offset="0.66" stop-color="#FFD88C"/>
<stop offset="0.905" stop-color="#F0DBA3"/>
</linearGradient>
<linearGradient id="paint12_linear_44_2" x1="10.8075" y1="105.337" x2="10.8075" y2="216.428" gradientUnits="userSpaceOnUse">
<stop offset="0.335" stop-color="#C9E4E7"/>
<stop offset="0.66" stop-color="#FFD88C"/>
<stop offset="0.905" stop-color="#F8D997"/>
</linearGradient>
<linearGradient id="paint13_linear_44_2" x1="144.884" y1="12.8213" x2="71.2766" y2="220.3" gradientUnits="userSpaceOnUse">
<stop offset="0.21" stop-color="#C9E4E7"/>
<stop offset="0.46" stop-color="#FFD88C"/>
<stop offset="0.825" stop-color="#C9E4E7"/>
</linearGradient>
<linearGradient id="paint14_linear_44_2" x1="179.848" y1="221.686" x2="134.513" y2="120.012" gradientUnits="userSpaceOnUse">
<stop offset="0.21" stop-color="#C9E4E7"/>
<stop offset="0.46" stop-color="#FFD88C"/>
<stop offset="0.825" stop-color="#C9E4E7"/>
</linearGradient>
<linearGradient id="paint15_linear_44_2" x1="217.669" y1="207.067" x2="169.915" y2="210.708" gradientUnits="userSpaceOnUse">
<stop offset="0.295" stop-color="#C9E4E7"/>
<stop offset="0.56" stop-color="#FFD88C"/>
<stop offset="0.75" stop-color="#C9E4E7"/>
</linearGradient>
<linearGradient id="paint16_linear_44_2" x1="236.268" y1="19.1292" x2="278.995" y2="19.1292" gradientUnits="userSpaceOnUse">
<stop offset="0.21" stop-color="#C9E4E7"/>
<stop offset="0.56" stop-color="#FFD88C"/>
<stop offset="0.83" stop-color="#C9E4E7"/>
</linearGradient>
<linearGradient id="paint17_linear_44_2" x1="196.305" y1="0.279016" x2="196.305" y2="37.9794" gradientUnits="userSpaceOnUse">
<stop offset="0.21" stop-color="#C9E4E7"/>
</linearGradient>
<linearGradient id="paint18_linear_44_2" x1="174.942" y1="19.1292" x2="217.669" y2="19.1292" gradientUnits="userSpaceOnUse">
<stop offset="0.245" stop-color="#C9E4E7"/>
<stop offset="0.56" stop-color="#FFD88C"/>
<stop offset="0.83" stop-color="#C9E4E7"/>
</linearGradient>
<linearGradient id="paint19_linear_44_2" x1="5.34016" y1="0" x2="5.34016" y2="62.0754" gradientUnits="userSpaceOnUse">
<stop offset="0.21" stop-color="#C9E4E7"/>
<stop offset="0.46" stop-color="#FFD88C"/>
<stop offset="0.825" stop-color="#C9E4E7"/>
</linearGradient>
<linearGradient id="paint20_linear_44_2" x1="5.34016" y1="0" x2="5.34016" y2="62.9734" gradientUnits="userSpaceOnUse">
<stop offset="0.21" stop-color="#C9E4E7"/>
<stop offset="0.46" stop-color="#FFD88C"/>
<stop offset="0.825" stop-color="#C9E4E7"/>
</linearGradient>
<linearGradient id="paint21_linear_44_2" x1="5.34016" y1="0" x2="5.34016" y2="72.8421" gradientUnits="userSpaceOnUse">
<stop offset="0.21" stop-color="#C9E4E7"/>
<stop offset="0.46" stop-color="#FFD88C"/>
<stop offset="0.825" stop-color="#C9E4E7"/>
</linearGradient>
<linearGradient id="paint22_linear_44_2" x1="5.34016" y1="0" x2="5.34016" y2="106.027" gradientUnits="userSpaceOnUse">
<stop offset="0.21" stop-color="#C9E4E7"/>
<stop offset="0.46" stop-color="#FFD88C"/>
<stop offset="0.825" stop-color="#C9E4E7"/>
</linearGradient>
<linearGradient id="paint23_linear_44_2" x1="5.34016" y1="0" x2="5.34016" y2="60.791" gradientUnits="userSpaceOnUse">
<stop offset="0.21" stop-color="#C9E4E7"/>
<stop offset="0.46" stop-color="#FFD88C"/>
<stop offset="0.825" stop-color="#C9E4E7"/>
</linearGradient>
<linearGradient id="paint24_linear_44_2" x1="5.34016" y1="0" x2="5.34016" y2="69.7979" gradientUnits="userSpaceOnUse">
<stop offset="0.21" stop-color="#C9E4E7"/>
<stop offset="0.46" stop-color="#FFD88C"/>
<stop offset="0.825" stop-color="#C9E4E7"/>
</linearGradient>
<linearGradient id="paint25_linear_44_2" x1="5.78073" y1="0" x2="5.78073" y2="99.0263" gradientUnits="userSpaceOnUse">
<stop offset="0.21" stop-color="#C9E4E7"/>
<stop offset="0.46" stop-color="#FFD88C"/>
<stop offset="0.825" stop-color="#C9E4E7"/>
</linearGradient>
<linearGradient id="paint26_linear_44_2" x1="5.78073" y1="0" x2="5.78073" y2="103.048" gradientUnits="userSpaceOnUse">
<stop offset="0.335" stop-color="#C9E4E7"/>
<stop offset="0.66" stop-color="#FFD88C"/>
<stop offset="0.905" stop-color="#F0DBA3"/>
</linearGradient>
<linearGradient id="paint27_linear_44_2" x1="5.78073" y1="0" x2="5.78073" y2="111.09" gradientUnits="userSpaceOnUse">
<stop offset="0.335" stop-color="#C9E4E7"/>
<stop offset="0.66" stop-color="#FFD88C"/>
<stop offset="0.905" stop-color="#F8D997"/>
</linearGradient>
<linearGradient id="paint28_linear_44_2" x1="135.116" y1="12.8213" x2="208.723" y2="220.3" gradientUnits="userSpaceOnUse">
<stop offset="0.21" stop-color="#C9E4E7"/>
<stop offset="0.46" stop-color="#FFD88C"/>
<stop offset="0.825" stop-color="#C9E4E7"/>
</linearGradient>
</defs>
</svg>
