<svg width="718" height="436" viewBox="0 0 718 436" fill="none" xmlns="http://www.w3.org/2000/svg">
<mask id="path-1-inside-1_36_151" fill="white">
<path fill-rule="evenodd" clip-rule="evenodd" d="M718 223.617C692.057 245.446 658.014 258.686 620.737 258.686C539.397 258.686 473.458 195.647 473.458 117.885C473.458 68.5521 499.996 25.1449 540.17 0C464.851 14.0282 408 77.4443 408 153.555C408 239.957 481.266 310 571.644 310C635.675 310 691.117 274.842 718 223.617Z"/>
</mask>
<path fill-rule="evenodd" clip-rule="evenodd" d="M718 223.617C692.057 245.446 658.014 258.686 620.737 258.686C539.397 258.686 473.458 195.647 473.458 117.885C473.458 68.5521 499.996 25.1449 540.17 0C464.851 14.0282 408 77.4443 408 153.555C408 239.957 481.266 310 571.644 310C635.675 310 691.117 274.842 718 223.617Z" fill="url(#paint0_radial_36_151)"/>
<path d="M718 223.617L718.885 224.082L717.356 222.852L718 223.617ZM540.17 0L540.701 0.847653L539.987 -0.983094L540.17 0ZM717.356 222.852C691.59 244.532 657.775 257.686 620.737 257.686V259.686C658.254 259.686 692.523 246.36 718.644 224.382L717.356 222.852ZM620.737 257.686C539.906 257.686 474.458 195.053 474.458 117.885H472.458C472.458 196.241 538.887 259.686 620.737 259.686V257.686ZM474.458 117.885C474.458 68.9242 500.795 25.8249 540.701 0.847653L539.639 -0.847653C499.198 24.4649 472.458 68.1799 472.458 117.885H474.458ZM409 153.555C409 77.9659 465.467 14.9306 540.353 0.983094L539.987 -0.983094C464.234 13.1257 407 76.9228 407 153.555H409ZM571.644 309C481.775 309 409 239.363 409 153.555H407C407 240.551 480.756 311 571.644 311V309ZM717.114 223.152C690.405 274.046 635.306 309 571.644 309V311C636.044 311 691.829 275.638 718.885 224.082L717.114 223.152Z" fill="black" mask="url(#path-1-inside-1_36_151)"/>
<g filter="url(#filter0_d_36_151)">
<mask id="path-3-outside-2_36_151" maskUnits="userSpaceOnUse" x="0" y="95" width="573" height="331" fill="black">
<rect fill="white" y="95" width="573" height="331"/>
<path fill-rule="evenodd" clip-rule="evenodd" d="M468.994 252.819C468.998 252.38 469 251.94 469 251.5C469 165.62 398.485 96 311.5 96C234.106 96 169.751 151.113 156.5 223.756C141.619 215.618 124.591 211 106.5 211C48.234 211 1 258.906 1 318C1 376.925 47.964 424.726 106 424.999V425H106.5H481.5H484V424.968C532.826 423.702 572 385.474 572 338.5C572 290.727 531.482 252 481.5 252C477.257 252 473.082 252.279 468.994 252.819Z"/>
</mask>
<path fill-rule="evenodd" clip-rule="evenodd" d="M468.994 252.819C468.998 252.38 469 251.94 469 251.5C469 165.62 398.485 96 311.5 96C234.106 96 169.751 151.113 156.5 223.756C141.619 215.618 124.591 211 106.5 211C48.234 211 1 258.906 1 318C1 376.925 47.964 424.726 106 424.999V425H106.5H481.5H484V424.968C532.826 423.702 572 385.474 572 338.5C572 290.727 531.482 252 481.5 252C477.257 252 473.082 252.279 468.994 252.819Z" fill="url(#paint1_linear_36_151)"/>
<path d="M468.994 252.819L467.994 252.811L467.985 253.961L469.125 253.811L468.994 252.819ZM156.5 223.756L156.02 224.634L157.235 225.298L157.483 223.936L156.5 223.756ZM106 424.999H107V424.004L106.005 423.999L106 424.999ZM106 425H105V426H106V425ZM484 425V426H485V425H484ZM484 424.968L483.974 423.968L483 423.993V424.968H484ZM469.994 252.828C469.998 252.385 470 251.943 470 251.5H468C468 251.937 467.998 252.374 467.994 252.811L469.994 252.828ZM470 251.5C470 165.055 399.025 95 311.5 95V97C397.945 97 468 166.184 468 251.5H470ZM311.5 95C233.624 95 168.854 150.458 155.516 223.577L157.483 223.936C170.648 151.768 234.589 97 311.5 97V95ZM156.979 222.879C141.956 214.663 124.764 210 106.5 210V212C124.419 212 141.282 216.574 156.02 224.634L156.979 222.879ZM106.5 210C47.6684 210 0 258.367 0 318H2C2 259.444 48.7995 212 106.5 212V210ZM0 318C0 377.463 47.3959 425.723 105.995 425.999L106.005 423.999C48.532 423.728 2 376.388 2 318H0ZM105 424.999V425H107V424.999H105ZM106 426H106.5V424H106V426ZM106.5 426H481.5V424H106.5V426ZM481.5 426H484V424H481.5V426ZM485 425V424.968H483V425H485ZM571 338.5C571 384.889 532.301 422.715 483.974 423.968L484.026 425.967C533.351 424.689 573 386.058 573 338.5H571ZM481.5 253C530.973 253 571 291.322 571 338.5H573C573 290.133 531.991 251 481.5 251V253ZM469.125 253.811C473.17 253.276 477.301 253 481.5 253V251C477.213 251 472.994 251.282 468.863 251.828L469.125 253.811Z" fill="black" mask="url(#path-3-outside-2_36_151)"/>
</g>
<defs>
<filter id="filter0_d_36_151" x="0" y="85" width="593" height="351" filterUnits="userSpaceOnUse" color-interpolation-filters="sRGB">
<feFlood flood-opacity="0" result="BackgroundImageFix"/>
<feColorMatrix in="SourceAlpha" type="matrix" values="0 0 0 0 0 0 0 0 0 0 0 0 0 0 0 0 0 0 127 0" result="hardAlpha"/>
<feOffset dx="10"/>
<feGaussianBlur stdDeviation="5"/>
<feComposite in2="hardAlpha" operator="out"/>
<feColorMatrix type="matrix" values="0 0 0 0 0 0 0 0 0 0 0 0 0 0 0 0 0 0 0.3 0"/>
<feBlend mode="normal" in2="BackgroundImageFix" result="effect1_dropShadow_36_151"/>
<feBlend mode="normal" in="SourceGraphic" in2="effect1_dropShadow_36_151" result="shape"/>
</filter>
<radialGradient id="paint0_radial_36_151" cx="0" cy="0" r="1" gradientUnits="userSpaceOnUse" gradientTransform="translate(563.134 163.642) rotate(135.873) scale(155.939 184.393)">
<stop offset="0.575" stop-color="#FFD88C"/>
<stop offset="0.9998" stop-color="#FFA500"/>
</radialGradient>
<linearGradient id="paint1_linear_36_151" x1="667" y1="181.5" x2="-20.5" y2="356.5" gradientUnits="userSpaceOnUse">
<stop offset="0.301615" stop-color="#0A1F33"/>
<stop offset="0.591805" stop-color="#1C3549"/>
<stop offset="0.844734" stop-color="#0A1F33"/>
</linearGradient>
</defs>
</svg>
