<svg width="500" height="500" viewBox="0 0 500 500" fill="none" xmlns="http://www.w3.org/2000/svg">
<mask id="path-1-inside-1_36_136" fill="white">
<path fill-rule="evenodd" clip-rule="evenodd" d="M500 360.673C458.156 395.881 403.248 417.235 343.124 417.235C211.93 417.235 105.577 315.56 105.577 190.137C105.577 110.568 148.381 40.5563 213.177 0C91.6947 22.6261 0 124.91 0 247.669C0 387.027 118.171 500 263.942 500C367.218 500 456.64 443.293 500 360.673Z"/>
</mask>
<path fill-rule="evenodd" clip-rule="evenodd" d="M500 360.673C458.156 395.881 403.248 417.235 343.124 417.235C211.93 417.235 105.577 315.56 105.577 190.137C105.577 110.568 148.381 40.5563 213.177 0C91.6947 22.6261 0 124.91 0 247.669C0 387.027 118.171 500 263.942 500C367.218 500 456.64 443.293 500 360.673Z" fill="url(#paint0_radial_36_136)"/>
<path d="M500 360.673L500.885 361.137L499.356 359.907L500 360.673ZM213.177 0L213.708 0.847653L212.994 -0.983094L213.177 0ZM499.356 359.907C457.689 394.967 403.009 416.235 343.124 416.235V418.235C403.488 418.235 458.622 396.795 500.644 361.438L499.356 359.907ZM343.124 416.235C212.44 416.235 106.577 314.966 106.577 190.137H104.577C104.577 316.154 211.421 418.235 343.124 418.235V416.235ZM106.577 190.137C106.577 110.94 149.18 41.2363 213.708 0.847653L212.647 -0.847653C147.583 39.8763 104.577 110.196 104.577 190.137H106.577ZM1 247.669C1 125.432 92.311 23.5285 213.36 0.983094L212.994 -0.983094C91.0784 21.7237 -1 124.389 -1 247.669H1ZM263.942 499C118.68 499 1 386.433 1 247.669H-1C-1 387.622 117.661 501 263.942 501V499ZM499.115 360.208C455.929 442.497 366.849 499 263.942 499V501C367.587 501 457.352 444.09 500.885 361.137L499.115 360.208Z" fill="black" mask="url(#path-1-inside-1_36_136)"/>
<defs>
<radialGradient id="paint0_radial_36_136" cx="0" cy="0" r="1" gradientUnits="userSpaceOnUse" gradientTransform="translate(250.217 263.939) rotate(135.873) scale(251.515 297.408)">
<stop offset="0.575" stop-color="#FFD88C"/>
<stop offset="0.9998" stop-color="#FFA500"/>
</radialGradient>
</defs>
</svg>
