<svg width="656" height="414" viewBox="0 0 656 414" fill="none" xmlns="http://www.w3.org/2000/svg">
<mask id="path-1-inside-1_36_126" fill="white">
<path fill-rule="evenodd" clip-rule="evenodd" d="M537.581 33.7895L506 0L474.419 33.7896C469.392 35.0218 464.486 36.5412 459.722 38.3284L413.295 28.6475L408.624 73.684C405.364 77.4421 402.34 81.3922 399.573 85.5138L356 103.647L380.055 142.693C379.902 145.11 379.825 147.547 379.825 150C379.825 152.453 379.902 154.89 380.055 157.307L356 196.353L399.573 214.486C402.34 218.608 405.364 222.558 408.624 226.316L413.295 271.353L459.722 261.672C464.486 263.459 469.392 264.978 474.419 266.21L506 300L537.581 266.21C542.608 264.978 547.514 263.459 552.278 261.672L598.705 271.353L603.376 226.316C606.636 222.558 609.66 218.608 612.427 214.486L656 196.353L631.945 157.307C632.098 154.89 632.176 152.454 632.176 150C632.176 147.546 632.098 145.11 631.945 142.693L656 103.647L612.427 85.5139C609.66 81.3922 606.636 77.442 603.376 73.6837L598.705 28.6475L552.278 38.3284C547.514 36.5412 542.608 35.0217 537.581 33.7895Z"/>
</mask>
<path fill-rule="evenodd" clip-rule="evenodd" d="M537.581 33.7895L506 0L474.419 33.7896C469.392 35.0218 464.486 36.5412 459.722 38.3284L413.295 28.6475L408.624 73.684C405.364 77.4421 402.34 81.3922 399.573 85.5138L356 103.647L380.055 142.693C379.902 145.11 379.825 147.547 379.825 150C379.825 152.453 379.902 154.89 380.055 157.307L356 196.353L399.573 214.486C402.34 218.608 405.364 222.558 408.624 226.316L413.295 271.353L459.722 261.672C464.486 263.459 469.392 264.978 474.419 266.21L506 300L537.581 266.21C542.608 264.978 547.514 263.459 552.278 261.672L598.705 271.353L603.376 226.316C606.636 222.558 609.66 218.608 612.427 214.486L656 196.353L631.945 157.307C632.098 154.89 632.176 152.454 632.176 150C632.176 147.546 632.098 145.11 631.945 142.693L656 103.647L612.427 85.5139C609.66 81.3922 606.636 77.442 603.376 73.6837L598.705 28.6475L552.278 38.3284C547.514 36.5412 542.608 35.0217 537.581 33.7895Z" fill="url(#paint0_radial_36_126)"/>
<path d="M506 0L506.731 -0.682825L506 -1.4645L505.269 -0.682825L506 0ZM537.581 33.7895L536.85 34.4724L537.053 34.6899L537.343 34.7608L537.581 33.7895ZM474.419 33.7896L474.657 34.7608L474.946 34.69L475.15 34.4724L474.419 33.7896ZM459.722 38.3284L459.518 39.3074L459.802 39.3666L460.073 39.2647L459.722 38.3284ZM413.295 28.6475L413.499 27.6685L412.415 27.4424L412.3 28.5443L413.295 28.6475ZM408.624 73.684L409.379 74.3393L409.586 74.1009L409.618 73.7871L408.624 73.684ZM399.573 85.5138L399.957 86.437L400.235 86.3213L400.403 86.0711L399.573 85.5138ZM356 103.647L355.616 102.724L354.534 103.174L355.149 104.172L356 103.647ZM380.055 142.693L381.053 142.756L381.073 142.439L380.906 142.169L380.055 142.693ZM380.055 157.307L380.906 157.831L381.073 157.561L381.053 157.244L380.055 157.307ZM356 196.353L355.149 195.828L354.534 196.826L355.616 197.276L356 196.353ZM399.573 214.486L400.403 213.929L400.235 213.679L399.957 213.563L399.573 214.486ZM408.624 226.316L409.618 226.213L409.586 225.899L409.379 225.661L408.624 226.316ZM413.295 271.353L412.3 271.456L412.415 272.558L413.499 272.331L413.295 271.353ZM459.722 261.672L460.073 260.735L459.802 260.633L459.518 260.693L459.722 261.672ZM474.419 266.21L475.15 265.528L474.946 265.31L474.657 265.239L474.419 266.21ZM506 300L505.269 300.683L506 301.465L506.731 300.683L506 300ZM537.581 266.21L537.343 265.239L537.053 265.31L536.85 265.528L537.581 266.21ZM552.278 261.672L552.482 260.693L552.199 260.633L551.927 260.735L552.278 261.672ZM598.705 271.353L598.501 272.331L599.585 272.558L599.7 271.456L598.705 271.353ZM603.376 226.316L602.621 225.661L602.414 225.899L602.381 226.213L603.376 226.316ZM612.427 214.486L612.043 213.563L611.765 213.679L611.597 213.929L612.427 214.486ZM656 196.353L656.384 197.276L657.466 196.826L656.851 195.828L656 196.353ZM631.945 157.307L630.947 157.244L630.927 157.561L631.094 157.832L631.945 157.307ZM631.945 142.693L631.094 142.168L630.927 142.439L630.947 142.756L631.945 142.693ZM656 103.647L656.851 104.172L657.466 103.174L656.384 102.724L656 103.647ZM612.427 85.5139L611.597 86.0712L611.765 86.3214L612.043 86.4371L612.427 85.5139ZM603.376 73.6837L602.381 73.7869L602.414 74.1007L602.621 74.339L603.376 73.6837ZM598.705 28.6475L599.7 28.5443L599.585 27.4424L598.501 27.6685L598.705 28.6475ZM552.278 38.3284L551.927 39.2647L552.199 39.3665L552.482 39.3074L552.278 38.3284ZM505.269 0.682825L536.85 34.4724L538.311 33.1067L506.731 -0.682825L505.269 0.682825ZM475.15 34.4724L506.731 0.682825L505.269 -0.682825L473.689 33.1068L475.15 34.4724ZM460.073 39.2647C464.8 37.4913 469.668 35.9836 474.657 34.7608L474.181 32.8183C469.115 34.0599 464.172 35.5911 459.371 37.3922L460.073 39.2647ZM413.091 29.6264L459.518 39.3074L459.926 37.3495L413.499 27.6685L413.091 29.6264ZM409.618 73.7871L414.29 28.7506L412.3 28.5443L407.629 73.5808L409.618 73.7871ZM400.403 86.0711C403.147 81.9841 406.146 78.0666 409.379 74.3393L407.868 73.0287C404.582 76.8176 401.533 80.8004 398.743 84.9564L400.403 86.0711ZM356.384 104.571L399.957 86.437L399.189 84.5905L355.616 102.724L356.384 104.571ZM380.906 142.169L356.851 103.123L355.149 104.172L379.203 143.218L380.906 142.169ZM380.825 150C380.825 147.568 380.901 145.152 381.053 142.756L379.057 142.63C378.903 145.068 378.825 147.525 378.825 150H380.825ZM381.053 157.244C380.901 154.848 380.825 152.432 380.825 150H378.825C378.825 152.475 378.903 154.932 379.057 157.37L381.053 157.244ZM356.851 196.877L380.906 157.831L379.203 156.782L355.149 195.828L356.851 196.877ZM399.957 213.563L356.384 195.429L355.616 197.276L399.189 215.409L399.957 213.563ZM409.379 225.661C406.146 221.933 403.147 218.016 400.403 213.929L398.743 215.044C401.533 219.2 404.582 223.182 407.868 226.971L409.379 225.661ZM414.29 271.249L409.618 226.213L407.629 226.419L412.3 271.456L414.29 271.249ZM459.518 260.693L413.091 270.374L413.499 272.331L459.926 262.651L459.518 260.693ZM474.657 265.239C469.668 264.016 464.8 262.509 460.073 260.735L459.371 262.608C464.172 264.409 469.115 265.94 474.181 267.182L474.657 265.239ZM506.731 299.317L475.15 265.528L473.689 266.893L505.269 300.683L506.731 299.317ZM536.85 265.528L505.269 299.317L506.731 300.683L538.311 266.893L536.85 265.528ZM551.927 260.735C547.2 262.509 542.332 264.016 537.343 265.239L537.819 267.182C542.885 265.94 547.828 264.409 552.63 262.608L551.927 260.735ZM598.909 270.374L552.482 260.693L552.074 262.651L598.501 272.331L598.909 270.374ZM602.381 226.213L597.71 271.249L599.7 271.456L604.371 226.419L602.381 226.213ZM611.597 213.929C608.853 218.016 605.854 221.934 602.621 225.661L604.131 226.972C607.418 223.183 610.468 219.2 613.258 215.043L611.597 213.929ZM655.616 195.429L612.043 213.563L612.812 215.409L656.384 197.276L655.616 195.429ZM631.094 157.832L655.149 196.877L656.851 195.828L632.797 156.783L631.094 157.832ZM631.176 150C631.176 152.433 631.099 154.848 630.947 157.244L632.943 157.37C633.097 154.932 633.176 152.475 633.176 150H631.176ZM630.947 142.756C631.099 145.152 631.176 147.567 631.176 150H633.176C633.176 147.525 633.097 145.068 632.943 142.63L630.947 142.756ZM655.149 103.123L631.094 142.168L632.797 143.217L656.851 104.172L655.149 103.123ZM612.043 86.4371L655.616 104.571L656.384 102.724L612.812 84.5906L612.043 86.4371ZM602.621 74.339C605.854 78.0665 608.853 81.984 611.597 86.0712L613.258 84.9565C610.468 80.8004 607.418 76.8175 604.131 73.0285L602.621 74.339ZM597.71 28.7506L602.381 73.7869L604.371 73.5806L599.7 28.5443L597.71 28.7506ZM552.482 39.3074L598.909 29.6264L598.501 27.6685L552.074 37.3495L552.482 39.3074ZM537.343 34.7608C542.332 35.9835 547.2 37.4913 551.927 39.2647L552.629 37.3921C547.828 35.591 542.885 34.0599 537.819 32.8183L537.343 34.7608Z" fill="black" mask="url(#path-1-inside-1_36_126)"/>
<g filter="url(#filter0_d_36_126)">
<mask id="path-3-outside-2_36_126" maskUnits="userSpaceOnUse" x="0" y="73" width="573" height="331" fill="black">
<rect fill="white" y="73" width="573" height="331"/>
<path fill-rule="evenodd" clip-rule="evenodd" d="M468.994 230.819C468.998 230.38 469 229.94 469 229.5C469 143.62 398.485 74 311.5 74C234.106 74 169.751 129.113 156.5 201.756C141.619 193.618 124.591 189 106.5 189C48.234 189 1 236.906 1 296C1 354.925 47.964 402.726 106 402.999V403H106.5H481.5H484V402.968C532.826 401.702 572 363.474 572 316.5C572 268.727 531.482 230 481.5 230C477.257 230 473.082 230.279 468.994 230.819Z"/>
</mask>
<path fill-rule="evenodd" clip-rule="evenodd" d="M468.994 230.819C468.998 230.38 469 229.94 469 229.5C469 143.62 398.485 74 311.5 74C234.106 74 169.751 129.113 156.5 201.756C141.619 193.618 124.591 189 106.5 189C48.234 189 1 236.906 1 296C1 354.925 47.964 402.726 106 402.999V403H106.5H481.5H484V402.968C532.826 401.702 572 363.474 572 316.5C572 268.727 531.482 230 481.5 230C477.257 230 473.082 230.279 468.994 230.819Z" fill="url(#paint1_linear_36_126)"/>
<path d="M468.994 230.819L467.994 230.811L467.985 231.961L469.125 231.811L468.994 230.819ZM156.5 201.756L156.02 202.634L157.235 203.298L157.483 201.936L156.5 201.756ZM106 402.999H107V402.004L106.005 401.999L106 402.999ZM106 403H105V404H106V403ZM484 403V404H485V403H484ZM484 402.968L483.974 401.968L483 401.993V402.968H484ZM469.994 230.828C469.998 230.385 470 229.943 470 229.5H468C468 229.937 467.998 230.374 467.994 230.811L469.994 230.828ZM470 229.5C470 143.055 399.025 73 311.5 73V75C397.945 75 468 144.184 468 229.5H470ZM311.5 73C233.624 73 168.854 128.458 155.516 201.577L157.483 201.936C170.648 129.768 234.589 75 311.5 75V73ZM156.979 200.879C141.956 192.663 124.764 188 106.5 188V190C124.419 190 141.282 194.574 156.02 202.634L156.979 200.879ZM106.5 188C47.6684 188 0 236.367 0 296H2C2 237.444 48.7995 190 106.5 190V188ZM0 296C0 355.463 47.3959 403.723 105.995 403.999L106.005 401.999C48.532 401.728 2 354.388 2 296H0ZM105 402.999V403H107V402.999H105ZM106 404H106.5V402H106V404ZM106.5 404H481.5V402H106.5V404ZM481.5 404H484V402H481.5V404ZM485 403V402.968H483V403H485ZM571 316.5C571 362.889 532.301 400.715 483.974 401.968L484.026 403.967C533.351 402.689 573 364.058 573 316.5H571ZM481.5 231C530.973 231 571 269.322 571 316.5H573C573 268.133 531.991 229 481.5 229V231ZM469.125 231.811C473.17 231.276 477.301 231 481.5 231V229C477.213 229 472.994 229.282 468.863 229.828L469.125 231.811Z" fill="black" mask="url(#path-3-outside-2_36_126)"/>
</g>
<defs>
<filter id="filter0_d_36_126" x="0" y="63" width="593" height="351" filterUnits="userSpaceOnUse" color-interpolation-filters="sRGB">
<feFlood flood-opacity="0" result="BackgroundImageFix"/>
<feColorMatrix in="SourceAlpha" type="matrix" values="0 0 0 0 0 0 0 0 0 0 0 0 0 0 0 0 0 0 127 0" result="hardAlpha"/>
<feOffset dx="10"/>
<feGaussianBlur stdDeviation="5"/>
<feComposite in2="hardAlpha" operator="out"/>
<feColorMatrix type="matrix" values="0 0 0 0 0 0 0 0 0 0 0 0 0 0 0 0 0 0 0.3 0"/>
<feBlend mode="normal" in2="BackgroundImageFix" result="effect1_dropShadow_36_126"/>
<feBlend mode="normal" in="SourceGraphic" in2="effect1_dropShadow_36_126" result="shape"/>
</filter>
<radialGradient id="paint0_radial_36_126" cx="0" cy="0" r="1" gradientUnits="userSpaceOnUse" gradientTransform="translate(506 150) rotate(90) scale(150)">
<stop offset="0.575" stop-color="#FFD88C"/>
<stop offset="0.9998" stop-color="#FFA500"/>
</radialGradient>
<linearGradient id="paint1_linear_36_126" x1="667" y1="159.5" x2="-20.5" y2="334.5" gradientUnits="userSpaceOnUse">
<stop offset="0.301615" stop-color="#5DC5E8"/>
<stop offset="0.558406" stop-color="#9BCFE1"/>
<stop offset="0.844734" stop-color="#5DC5E8"/>
</linearGradient>
</defs>
</svg>
