<svg width="731" height="385" viewBox="0 0 731 385" fill="none" xmlns="http://www.w3.org/2000/svg">
<g filter="url(#filter0_d_36_502)">
<mask id="path-1-outside-1_36_502" maskUnits="userSpaceOnUse" x="138" y="10" width="573" height="331" fill="black">
<rect fill="white" x="138" y="10" width="573" height="331"/>
<path fill-rule="evenodd" clip-rule="evenodd" d="M606.994 167.819C606.998 167.38 607 166.94 607 166.5C607 80.6197 536.485 11 449.5 11C372.106 11 307.751 66.1131 294.5 138.756C279.619 130.618 262.591 126 244.5 126C186.234 126 139 173.906 139 233C139 291.925 185.964 339.726 244 339.999V340H244.5H619.5H622V339.968C670.826 338.702 710 300.474 710 253.5C710 205.727 669.482 167 619.5 167C615.257 167 611.082 167.279 606.994 167.819Z"/>
</mask>
<path fill-rule="evenodd" clip-rule="evenodd" d="M606.994 167.819C606.998 167.38 607 166.94 607 166.5C607 80.6197 536.485 11 449.5 11C372.106 11 307.751 66.1131 294.5 138.756C279.619 130.618 262.591 126 244.5 126C186.234 126 139 173.906 139 233C139 291.925 185.964 339.726 244 339.999V340H244.5H619.5H622V339.968C670.826 338.702 710 300.474 710 253.5C710 205.727 669.482 167 619.5 167C615.257 167 611.082 167.279 606.994 167.819Z" fill="url(#paint0_linear_36_502)"/>
<path d="M606.994 167.819L605.994 167.811L605.985 168.961L607.125 168.811L606.994 167.819ZM294.5 138.756L294.02 139.634L295.235 140.298L295.483 138.936L294.5 138.756ZM244 339.999H245V339.004L244.005 338.999L244 339.999ZM244 340H243V341H244V340ZM622 340V341H623V340H622ZM622 339.968L621.974 338.968L621 338.993V339.968H622ZM607.994 167.828C607.998 167.385 608 166.943 608 166.5H606C606 166.937 605.998 167.374 605.994 167.811L607.994 167.828ZM608 166.5C608 80.0554 537.025 10 449.5 10V12C535.945 12 606 81.184 606 166.5H608ZM449.5 10C371.624 10 306.854 65.458 293.516 138.577L295.483 138.936C308.648 66.7682 372.589 12 449.5 12V10ZM294.979 137.879C279.956 129.663 262.764 125 244.5 125V127C262.419 127 279.282 131.574 294.02 139.634L294.979 137.879ZM244.5 125C185.668 125 138 173.367 138 233H140C140 174.444 186.8 127 244.5 127V125ZM138 233C138 292.463 185.396 340.723 243.995 340.999L244.005 338.999C186.532 338.728 140 291.388 140 233H138ZM243 339.999V340H245V339.999H243ZM244 341H244.5V339H244V341ZM244.5 341H619.5V339H244.5V341ZM619.5 341H622V339H619.5V341ZM623 340V339.968H621V340H623ZM709 253.5C709 299.889 670.301 337.715 621.974 338.968L622.026 340.967C671.351 339.689 711 301.058 711 253.5H709ZM619.5 168C668.973 168 709 206.322 709 253.5H711C711 205.133 669.991 166 619.5 166V168ZM607.125 168.811C611.17 168.276 615.301 168 619.5 168V166C615.213 166 610.994 166.282 606.863 166.828L607.125 168.811Z" fill="black" mask="url(#path-1-outside-1_36_502)"/>
</g>
<g filter="url(#filter1_d_36_502)">
<mask id="path-3-outside-2_36_502" maskUnits="userSpaceOnUse" x="0" y="147" width="393" height="228" fill="black">
<rect fill="white" y="147" width="393" height="228"/>
<path fill-rule="evenodd" clip-rule="evenodd" d="M321.466 255.384C321.468 255.083 321.469 254.782 321.469 254.481C321.469 195.673 273.183 148 213.619 148C160.623 148 116.554 185.739 107.48 235.483C97.2908 229.91 85.6308 226.748 73.2426 226.748C33.3441 226.748 1 259.552 1 300.018C1 340.367 33.1592 373.099 72.9002 373.286V373.287H73.2426H330.029H331.741V373.265C365.175 372.398 392 346.221 392 314.055C392 281.342 364.255 254.823 330.029 254.823C327.123 254.823 324.265 255.014 321.466 255.384Z"/>
</mask>
<path fill-rule="evenodd" clip-rule="evenodd" d="M321.466 255.384C321.468 255.083 321.469 254.782 321.469 254.481C321.469 195.673 273.183 148 213.619 148C160.623 148 116.554 185.739 107.48 235.483C97.2908 229.91 85.6308 226.748 73.2426 226.748C33.3441 226.748 1 259.552 1 300.018C1 340.367 33.1592 373.099 72.9002 373.286V373.287H73.2426H330.029H331.741V373.265C365.175 372.398 392 346.221 392 314.055C392 281.342 364.255 254.823 330.029 254.823C327.123 254.823 324.265 255.014 321.466 255.384Z" fill="url(#paint1_linear_36_502)"/>
<path d="M321.466 255.384L320.466 255.376L320.456 256.526L321.597 256.375L321.466 255.384ZM107.48 235.483L107.001 236.36L108.216 237.025L108.464 235.662L107.48 235.483ZM72.9002 373.286H73.9002V372.291L72.9049 372.286L72.9002 373.286ZM72.9002 373.287H71.9002V374.287H72.9002V373.287ZM331.741 373.287V374.287H332.741V373.287H331.741ZM331.741 373.265L331.715 372.265L330.741 372.291V373.265H331.741ZM322.466 255.392C322.468 255.089 322.469 254.785 322.469 254.481H320.469C320.469 254.779 320.468 255.078 320.466 255.376L322.466 255.392ZM322.469 254.481C322.469 195.109 273.723 147 213.619 147V149C272.643 149 320.469 196.237 320.469 254.481H322.469ZM213.619 147C160.14 147 115.657 185.084 106.497 235.303L108.464 235.662C117.451 186.395 161.105 149 213.619 149V147ZM107.96 234.605C97.6276 228.955 85.8032 225.748 73.2426 225.748V227.748C85.4585 227.748 96.954 230.866 107.001 236.36L107.96 234.605ZM73.2426 225.748C32.7785 225.748 0 259.013 0 300.018H2C2 260.091 33.9096 227.748 73.2426 227.748V225.748ZM0 300.018C0 340.905 32.5912 374.097 72.8955 374.286L72.9049 372.286C33.7273 372.102 2 339.83 2 300.018H0ZM71.9002 373.286V373.287H73.9002V373.286H71.9002ZM72.9002 374.287H73.2426V372.287H72.9002V374.287ZM73.2426 374.287H330.029V372.287H73.2426V374.287ZM330.029 374.287H331.741V372.287H330.029V374.287ZM332.741 373.287V373.265H330.741V373.287H332.741ZM391 314.055C391 345.637 364.65 371.412 331.715 372.265L331.767 374.265C365.7 373.385 393 346.805 393 314.055H391ZM330.029 255.823C363.745 255.823 391 281.937 391 314.055H393C393 280.748 364.764 253.823 330.029 253.823V255.823ZM321.597 256.375C324.352 256.011 327.167 255.823 330.029 255.823V253.823C327.08 253.823 324.177 254.017 321.335 254.393L321.597 256.375Z" fill="black" mask="url(#path-3-outside-2_36_502)"/>
</g>
<defs>
<filter id="filter0_d_36_502" x="138" y="0" width="593" height="351" filterUnits="userSpaceOnUse" color-interpolation-filters="sRGB">
<feFlood flood-opacity="0" result="BackgroundImageFix"/>
<feColorMatrix in="SourceAlpha" type="matrix" values="0 0 0 0 0 0 0 0 0 0 0 0 0 0 0 0 0 0 127 0" result="hardAlpha"/>
<feOffset dx="10"/>
<feGaussianBlur stdDeviation="5"/>
<feComposite in2="hardAlpha" operator="out"/>
<feColorMatrix type="matrix" values="0 0 0 0 0 0 0 0 0 0 0 0 0 0 0 0 0 0 0.3 0"/>
<feBlend mode="normal" in2="BackgroundImageFix" result="effect1_dropShadow_36_502"/>
<feBlend mode="normal" in="SourceGraphic" in2="effect1_dropShadow_36_502" result="shape"/>
</filter>
<filter id="filter1_d_36_502" x="0" y="137" width="413" height="247.287" filterUnits="userSpaceOnUse" color-interpolation-filters="sRGB">
<feFlood flood-opacity="0" result="BackgroundImageFix"/>
<feColorMatrix in="SourceAlpha" type="matrix" values="0 0 0 0 0 0 0 0 0 0 0 0 0 0 0 0 0 0 127 0" result="hardAlpha"/>
<feOffset dx="10"/>
<feGaussianBlur stdDeviation="5"/>
<feComposite in2="hardAlpha" operator="out"/>
<feColorMatrix type="matrix" values="0 0 0 0 0 0 0 0 0 0 0 0 0 0 0 0 0 0 0.3 0"/>
<feBlend mode="normal" in2="BackgroundImageFix" result="effect1_dropShadow_36_502"/>
<feBlend mode="normal" in="SourceGraphic" in2="effect1_dropShadow_36_502" result="shape"/>
</filter>
<linearGradient id="paint0_linear_36_502" x1="805" y1="96.5" x2="117.5" y2="271.5" gradientUnits="userSpaceOnUse">
<stop offset="0.301615" stop-color="#5DC5E8"/>
<stop offset="0.558406" stop-color="#9BCFE1"/>
<stop offset="0.844734" stop-color="#5DC5E8"/>
</linearGradient>
<linearGradient id="paint1_linear_36_502" x1="457.053" y1="206.547" x2="-13.7224" y2="326.381" gradientUnits="userSpaceOnUse">
<stop offset="0.301615" stop-color="#5DC5E8"/>
<stop offset="0.558406" stop-color="#9BCFE1"/>
<stop offset="0.844734" stop-color="#5DC5E8"/>
</linearGradient>
</defs>
</svg>
