<svg width="711" height="378" viewBox="0 0 711 378" fill="none" xmlns="http://www.w3.org/2000/svg">
<g filter="url(#filter0_d_36_500)">
<mask id="path-1-outside-1_36_500" maskUnits="userSpaceOnUse" x="118" y="10" width="573" height="331" fill="black">
<rect fill="white" x="118" y="10" width="573" height="331"/>
<path fill-rule="evenodd" clip-rule="evenodd" d="M586.994 167.819C586.998 167.38 587 166.94 587 166.5C587 80.6197 516.485 11 429.5 11C352.106 11 287.751 66.1131 274.5 138.756C259.619 130.618 242.591 126 224.5 126C166.234 126 119 173.906 119 233C119 291.925 165.964 339.726 224 339.999V340H224.5H599.5H602V339.968C650.826 338.702 690 300.474 690 253.5C690 205.727 649.482 167 599.5 167C595.257 167 591.082 167.279 586.994 167.819Z"/>
</mask>
<path fill-rule="evenodd" clip-rule="evenodd" d="M586.994 167.819C586.998 167.38 587 166.94 587 166.5C587 80.6197 516.485 11 429.5 11C352.106 11 287.751 66.1131 274.5 138.756C259.619 130.618 242.591 126 224.5 126C166.234 126 119 173.906 119 233C119 291.925 165.964 339.726 224 339.999V340H224.5H599.5H602V339.968C650.826 338.702 690 300.474 690 253.5C690 205.727 649.482 167 599.5 167C595.257 167 591.082 167.279 586.994 167.819Z" fill="url(#paint0_linear_36_500)"/>
<path d="M586.994 167.819L585.994 167.811L585.985 168.961L587.125 168.811L586.994 167.819ZM274.5 138.756L274.02 139.634L275.235 140.298L275.483 138.936L274.5 138.756ZM224 339.999H225V339.004L224.005 338.999L224 339.999ZM224 340H223V341H224V340ZM602 340V341H603V340H602ZM602 339.968L601.974 338.968L601 338.993V339.968H602ZM587.994 167.828C587.998 167.385 588 166.943 588 166.5H586C586 166.937 585.998 167.374 585.994 167.811L587.994 167.828ZM588 166.5C588 80.0554 517.025 10 429.5 10V12C515.945 12 586 81.184 586 166.5H588ZM429.5 10C351.624 10 286.854 65.458 273.516 138.577L275.483 138.936C288.648 66.7682 352.589 12 429.5 12V10ZM274.979 137.879C259.956 129.663 242.764 125 224.5 125V127C242.419 127 259.282 131.574 274.02 139.634L274.979 137.879ZM224.5 125C165.668 125 118 173.367 118 233H120C120 174.444 166.8 127 224.5 127V125ZM118 233C118 292.463 165.396 340.723 223.995 340.999L224.005 338.999C166.532 338.728 120 291.388 120 233H118ZM223 339.999V340H225V339.999H223ZM224 341H224.5V339H224V341ZM224.5 341H599.5V339H224.5V341ZM599.5 341H602V339H599.5V341ZM603 340V339.968H601V340H603ZM689 253.5C689 299.889 650.301 337.715 601.974 338.968L602.026 340.967C651.351 339.689 691 301.058 691 253.5H689ZM599.5 168C648.973 168 689 206.322 689 253.5H691C691 205.133 649.991 166 599.5 166V168ZM587.125 168.811C591.17 168.276 595.301 168 599.5 168V166C595.213 166 590.994 166.282 586.863 166.828L587.125 168.811Z" fill="black" mask="url(#path-1-outside-1_36_500)"/>
</g>
<g filter="url(#filter1_d_36_500)">
<mask id="path-3-outside-2_36_500" maskUnits="userSpaceOnUse" x="0" y="155" width="368" height="213" fill="black">
<rect fill="white" y="155" width="368" height="213"/>
<path fill-rule="evenodd" clip-rule="evenodd" d="M300.975 256.518C300.978 256.236 300.979 255.955 300.979 255.673C300.979 200.625 255.78 156 200.025 156C150.417 156 109.166 191.326 100.672 237.889C91.1341 232.673 80.2196 229.713 68.6235 229.713C31.2761 229.713 1 260.419 1 298.298C1 336.068 31.103 366.707 68.303 366.882V366.883H68.6235H308.991H310.594V366.862C341.89 366.051 367 341.547 367 311.438C367 280.816 341.029 255.993 308.991 255.993C306.272 255.993 303.596 256.172 300.975 256.518Z"/>
</mask>
<path fill-rule="evenodd" clip-rule="evenodd" d="M300.975 256.518C300.978 256.236 300.979 255.955 300.979 255.673C300.979 200.625 255.78 156 200.025 156C150.417 156 109.166 191.326 100.672 237.889C91.1341 232.673 80.2196 229.713 68.6235 229.713C31.2761 229.713 1 260.419 1 298.298C1 336.068 31.103 366.707 68.303 366.882V366.883H68.6235H308.991H310.594V366.862C341.89 366.051 367 341.547 367 311.438C367 280.816 341.029 255.993 308.991 255.993C306.272 255.993 303.596 256.172 300.975 256.518Z" fill="url(#paint1_linear_36_500)"/>
<path d="M300.975 256.518L299.975 256.51L299.966 257.66L301.106 257.509L300.975 256.518ZM100.672 237.889L100.192 238.767L101.407 239.431L101.656 238.069L100.672 237.889ZM68.303 366.882H69.303V365.887L68.3077 365.882L68.303 366.882ZM68.303 366.883H67.303V367.883H68.303V366.883ZM310.594 366.883V367.883H311.594V366.883H310.594ZM310.594 366.862L310.568 365.862L309.594 365.887V366.862H310.594ZM301.975 256.526C301.978 256.242 301.979 255.957 301.979 255.673H299.979C299.979 255.952 299.978 256.231 299.975 256.51L301.975 256.526ZM301.979 255.673C301.979 200.061 256.32 155 200.025 155V157C255.24 157 299.979 201.189 299.979 255.673H301.979ZM200.025 155C149.934 155 108.269 190.671 99.6884 237.71L101.656 238.069C110.063 191.982 150.899 157 200.025 157V155ZM101.152 237.012C91.4709 231.718 80.392 228.713 68.6235 228.713V230.713C80.0473 230.713 90.7972 233.629 100.192 238.767L101.152 237.012ZM68.6235 228.713C30.7105 228.713 0 259.88 0 298.298H2C2 260.958 31.8416 230.713 68.6235 230.713V228.713ZM0 298.298C0 336.605 30.5349 367.704 68.2983 367.882L68.3077 365.882C31.6711 365.71 2 335.53 2 298.298H0ZM67.303 366.882V366.883H69.303V366.882H67.303ZM68.303 367.883H68.6235V365.883H68.303V367.883ZM68.6235 367.883H308.991V365.883H68.6235V367.883ZM308.991 367.883H310.594V365.883H308.991V367.883ZM311.594 366.883V366.862H309.594V366.883H311.594ZM366 311.438C366 340.963 341.365 365.064 310.568 365.862L310.62 367.862C342.415 367.037 368 342.131 368 311.438H366ZM308.991 256.993C340.519 256.993 366 281.411 366 311.438H368C368 280.222 341.538 254.993 308.991 254.993V256.993ZM301.106 257.509C303.683 257.169 306.315 256.993 308.991 256.993V254.993C306.228 254.993 303.508 255.175 300.844 255.527L301.106 257.509Z" fill="black" mask="url(#path-3-outside-2_36_500)"/>
</g>
<defs>
<filter id="filter0_d_36_500" x="118" y="0" width="593" height="351" filterUnits="userSpaceOnUse" color-interpolation-filters="sRGB">
<feFlood flood-opacity="0" result="BackgroundImageFix"/>
<feColorMatrix in="SourceAlpha" type="matrix" values="0 0 0 0 0 0 0 0 0 0 0 0 0 0 0 0 0 0 127 0" result="hardAlpha"/>
<feOffset dx="10"/>
<feGaussianBlur stdDeviation="5"/>
<feComposite in2="hardAlpha" operator="out"/>
<feColorMatrix type="matrix" values="0 0 0 0 0 0 0 0 0 0 0 0 0 0 0 0 0 0 0.3 0"/>
<feBlend mode="normal" in2="BackgroundImageFix" result="effect1_dropShadow_36_500"/>
<feBlend mode="normal" in="SourceGraphic" in2="effect1_dropShadow_36_500" result="shape"/>
</filter>
<filter id="filter1_d_36_500" x="0" y="145" width="388" height="232.883" filterUnits="userSpaceOnUse" color-interpolation-filters="sRGB">
<feFlood flood-opacity="0" result="BackgroundImageFix"/>
<feColorMatrix in="SourceAlpha" type="matrix" values="0 0 0 0 0 0 0 0 0 0 0 0 0 0 0 0 0 0 127 0" result="hardAlpha"/>
<feOffset dx="10"/>
<feGaussianBlur stdDeviation="5"/>
<feComposite in2="hardAlpha" operator="out"/>
<feColorMatrix type="matrix" values="0 0 0 0 0 0 0 0 0 0 0 0 0 0 0 0 0 0 0.3 0"/>
<feBlend mode="normal" in2="BackgroundImageFix" result="effect1_dropShadow_36_500"/>
<feBlend mode="normal" in="SourceGraphic" in2="effect1_dropShadow_36_500" result="shape"/>
</filter>
<linearGradient id="paint0_linear_36_500" x1="785" y1="96.5" x2="97.5" y2="271.5" gradientUnits="userSpaceOnUse">
<stop offset="0.301615" stop-color="#0A1F33"/>
<stop offset="0.591805" stop-color="#1C3549"/>
<stop offset="0.844734" stop-color="#0A1F33"/>
</linearGradient>
<linearGradient id="paint1_linear_36_500" x1="427.893" y1="210.804" x2="-12.7811" y2="322.975" gradientUnits="userSpaceOnUse">
<stop offset="0.301615" stop-color="#0A1F33"/>
<stop offset="0.591805" stop-color="#1C3549"/>
<stop offset="0.844734" stop-color="#0A1F33"/>
</linearGradient>
</defs>
</svg>
