<svg width="672" height="843" viewBox="0 0 672 843" fill="none" xmlns="http://www.w3.org/2000/svg">
<mask id="path-1-outside-1_35_5" maskUnits="userSpaceOnUse" x="0" y="0.743225" width="672" height="391" fill="black">
<rect fill="white" y="0.743225" width="672" height="391"/>
<path fill-rule="evenodd" clip-rule="evenodd" d="M564.892 390.401H567.743V390.363C625.034 388.868 671 343.707 671 288.216C671 231.781 623.457 186.031 564.809 186.031C559.83 186.031 554.932 186.361 550.135 186.999C550.14 186.48 550.142 185.96 550.142 185.44C550.142 83.9872 467.401 1.74323 365.334 1.74323C274.522 1.74323 199.009 66.8501 183.46 152.666C166 143.052 146.02 137.596 124.792 137.596C56.4234 137.596 1 194.189 1 263.999C1 333.609 56.1066 390.077 124.205 390.4V390.401H124.792H564.726C564.754 390.401 564.781 390.401 564.809 390.401C564.837 390.401 564.864 390.401 564.892 390.401Z"/>
</mask>
<path fill-rule="evenodd" clip-rule="evenodd" d="M564.892 390.401H567.743V390.363C625.034 388.868 671 343.707 671 288.216C671 231.781 623.457 186.031 564.809 186.031C559.83 186.031 554.932 186.361 550.135 186.999C550.14 186.48 550.142 185.96 550.142 185.44C550.142 83.9872 467.401 1.74323 365.334 1.74323C274.522 1.74323 199.009 66.8501 183.46 152.666C166 143.052 146.02 137.596 124.792 137.596C56.4234 137.596 1 194.189 1 263.999C1 333.609 56.1066 390.077 124.205 390.4V390.401H124.792H564.726C564.754 390.401 564.781 390.401 564.809 390.401C564.837 390.401 564.864 390.401 564.892 390.401Z" fill="url(#paint0_linear_35_5)"/>
<path d="M567.743 390.401V391.401H568.743V390.401H567.743ZM567.743 390.363L567.716 389.363L566.743 389.389V390.363H567.743ZM550.135 186.999L549.135 186.99L549.126 188.142L550.267 187.99L550.135 186.999ZM183.46 152.666L182.978 153.542L184.196 154.212L184.444 152.844L183.46 152.666ZM124.205 390.4H125.205V389.405L124.21 389.4L124.205 390.4ZM124.205 390.401H123.205V391.401H124.205V390.401ZM564.892 391.401H567.743V389.401H564.892V391.401ZM568.743 390.401V390.363H566.743V390.401H568.743ZM670 288.216C670 343.129 624.503 387.881 567.716 389.363L567.769 391.363C625.565 389.854 672 344.286 672 288.216H670ZM564.809 187.031C622.941 187.031 670 232.369 670 288.216H672C672 231.193 623.972 185.031 564.809 185.031V187.031ZM550.267 187.99C555.02 187.358 559.875 187.031 564.809 187.031V185.031C559.786 185.031 554.843 185.364 550.003 186.007L550.267 187.99ZM551.135 187.007C551.14 186.485 551.142 185.963 551.142 185.44H549.142C549.142 185.957 549.14 186.474 549.135 186.99L551.135 187.007ZM551.142 185.44C551.142 83.4292 467.947 0.743225 365.334 0.743225V2.74323C466.854 2.74323 549.142 84.5452 549.142 185.44H551.142ZM365.334 0.743225C274.035 0.743225 198.11 66.2002 182.476 152.487L184.444 152.844C199.907 67.4999 275.01 2.74323 365.334 2.74323V0.743225ZM183.942 151.79C166.339 142.097 146.193 136.596 124.792 136.596V138.596C145.846 138.596 165.661 144.007 182.978 153.542L183.942 151.79ZM124.792 136.596C55.8515 136.596 0 193.656 0 263.999H2C2 194.721 56.9953 138.596 124.792 138.596V136.596ZM0 263.999C0 334.14 55.5323 391.074 124.2 391.4L124.21 389.4C56.681 389.08 2 333.078 2 263.999H0ZM123.205 390.4V390.401H125.205V390.4H123.205ZM124.205 391.401H124.792V389.401H124.205V391.401ZM124.792 391.401H564.726V389.401H124.792V391.401ZM564.809 389.401C564.796 389.401 564.782 389.401 564.768 389.401C564.754 389.401 564.74 389.401 564.726 389.401V391.401C564.74 391.401 564.753 391.401 564.767 391.401C564.781 391.401 564.795 391.401 564.809 391.401V389.401ZM564.892 389.401C564.878 389.401 564.864 389.401 564.85 389.401C564.836 389.401 564.823 389.401 564.809 389.401V391.401C564.823 391.401 564.837 391.401 564.851 391.401C564.865 391.401 564.879 391.401 564.892 391.401V389.401Z" fill="black" mask="url(#path-1-outside-1_35_5)"/>
<path d="M439.722 516.205L440.196 516.044L439.722 516.205C441.753 522.174 445.139 527.665 449.692 532.22C457.526 540.058 468.172 544.483 479.287 544.521C490.402 544.559 501.078 540.207 508.966 532.423C513.55 527.899 516.973 522.431 519.045 516.476L519.053 516.454C519.671 514.674 520.192 513.177 520.512 511.868C520.827 510.58 520.959 509.434 520.788 508.335C521.18 505.768 520.661 502.733 519.51 498.965C518.346 495.156 516.514 490.531 514.242 484.797L514.235 484.777L501.666 453.048L501.648 453.003C497.062 441.424 493.601 432.686 490.289 426.847C486.984 421.022 483.718 417.881 479.445 417.881C475.172 417.881 471.906 421.022 468.602 426.847C465.29 432.686 461.828 441.424 457.242 453.003L457.224 453.048L444.656 484.777L444.648 484.796C442.432 490.39 440.634 494.929 439.468 498.684C438.313 502.399 437.756 505.407 438.051 507.955C437.852 509.067 437.968 510.226 438.273 511.531C438.583 512.857 439.1 514.375 439.715 516.183L439.722 516.205Z" fill="url(#paint1_radial_35_5)" stroke="black"/>
<path d="M439.723 813.244L440.197 813.083L439.723 813.244C441.754 819.213 445.14 824.705 449.693 829.26C457.527 837.098 468.173 841.522 479.288 841.56C490.404 841.598 501.079 837.247 508.967 829.462C513.551 824.938 516.974 819.471 519.046 813.515L519.054 813.493C519.672 811.714 520.193 810.217 520.513 808.907C520.828 807.62 520.96 806.474 520.789 805.375C521.181 802.808 520.662 799.772 519.511 796.005C518.347 792.196 516.515 787.57 514.243 781.836L514.236 781.817L501.667 750.088L501.65 750.043C497.063 738.463 493.602 729.725 490.29 723.887C486.986 718.061 483.719 714.92 479.446 714.92C475.173 714.92 471.907 718.061 468.603 723.887C465.291 729.725 461.83 738.463 457.243 750.043L457.225 750.088L444.657 781.817L444.649 781.835C442.433 787.43 440.635 791.969 439.469 795.723C438.314 799.438 437.757 802.447 438.052 804.995C437.853 806.107 437.969 807.266 438.274 808.571C438.585 809.897 439.101 811.414 439.716 813.223L439.723 813.244Z" fill="url(#paint2_radial_35_5)" stroke="black"/>
<path d="M364.824 659.351L365.297 659.19L364.824 659.351C366.854 665.32 370.241 670.811 374.793 675.366C382.627 683.204 393.273 687.629 404.389 687.667C415.504 687.705 426.18 683.353 434.067 675.569C438.651 671.045 442.075 665.577 444.146 659.622L444.154 659.6C444.773 657.821 445.294 656.324 445.614 655.014C445.929 653.726 446.06 652.58 445.89 651.481C446.281 648.914 445.762 645.879 444.611 642.111C443.447 638.302 441.615 633.677 439.344 627.943L439.336 627.923L426.768 596.194L426.75 596.149C422.163 584.57 418.702 575.832 415.39 569.993C412.086 564.168 408.82 561.027 404.547 561.027C400.274 561.027 397.007 564.168 393.703 569.993C390.391 575.832 386.93 584.57 382.343 596.149L382.326 596.194L369.757 627.923L369.75 627.942C367.534 633.536 365.736 638.075 364.569 641.83C363.415 645.545 362.857 648.553 363.153 651.101C362.954 652.213 363.07 653.372 363.375 654.677C363.685 656.003 364.201 657.521 364.817 659.329L364.824 659.351Z" fill="url(#paint3_radial_35_5)" stroke="black"/>
<path d="M514.452 659.351L514.925 659.19L514.452 659.351C516.483 665.32 519.869 670.811 524.422 675.366C532.256 683.204 542.901 687.629 554.017 687.667C565.132 687.705 575.808 683.353 583.696 675.569C588.279 671.045 591.703 665.577 593.775 659.622L593.782 659.6C594.401 657.821 594.922 656.324 595.242 655.014C595.557 653.726 595.688 652.58 595.518 651.481C595.91 648.914 595.39 645.879 594.239 642.111C593.076 638.302 591.243 633.677 588.972 627.943L588.965 627.923L576.396 596.194L576.378 596.149C571.792 584.57 568.33 575.832 565.018 569.993C561.714 564.168 558.448 561.027 554.175 561.027C549.902 561.027 546.636 564.168 543.332 569.993C540.02 575.832 536.558 584.57 531.972 596.149L531.954 596.194L519.386 627.923L519.378 627.942C517.162 633.536 515.364 638.075 514.197 641.83C513.043 645.545 512.485 648.553 512.781 651.101C512.582 652.213 512.698 653.372 513.003 654.677C513.313 656.003 513.83 657.521 514.445 659.329L514.452 659.351Z" fill="url(#paint4_radial_35_5)" stroke="black"/>
<path d="M290.094 516.546L290.567 516.385L290.094 516.546C292.125 522.515 295.511 528.006 300.063 532.561C307.898 540.4 318.543 544.824 329.659 544.862C340.774 544.9 351.45 540.548 359.338 532.764C363.921 528.24 367.345 522.772 369.417 516.817L369.424 516.795C370.043 515.016 370.564 513.519 370.884 512.209C371.199 510.921 371.33 509.776 371.16 508.677C371.552 506.109 371.032 503.074 369.881 499.306C368.718 495.497 366.885 490.872 364.614 485.138L364.606 485.118L352.038 453.389L352.02 453.344C347.433 441.765 343.972 433.027 340.66 427.188C337.356 421.363 334.09 418.222 329.817 418.222C325.544 418.222 322.277 421.363 318.973 427.188C315.661 433.027 312.2 441.765 307.613 453.344L307.596 453.389L295.027 485.118L295.02 485.137C292.804 490.731 291.006 495.27 289.839 499.025C288.685 502.74 288.127 505.748 288.423 508.296C288.224 509.408 288.34 510.567 288.645 511.872C288.955 513.198 289.471 514.716 290.087 516.524L290.094 516.546Z" fill="url(#paint5_radial_35_5)" stroke="black"/>
<path d="M290.095 813.585L290.568 813.424L290.095 813.585C292.126 819.555 295.512 825.046 300.065 829.601C307.899 837.439 318.544 841.864 329.66 841.902C340.775 841.94 351.451 837.588 359.339 829.804C363.922 825.28 367.346 819.812 369.418 813.857L369.425 813.834C370.044 812.055 370.565 810.558 370.885 809.249C371.2 807.961 371.331 806.815 371.161 805.716C371.553 803.149 371.033 800.114 369.882 796.346C368.719 792.537 366.886 787.911 364.615 782.177L364.607 782.158L352.039 750.429L352.021 750.384C347.435 738.805 343.973 730.067 340.661 724.228C337.357 718.403 334.091 715.262 329.818 715.262C325.545 715.262 322.279 718.403 318.974 724.228C315.663 730.067 312.201 738.805 307.615 750.384L307.597 750.429L295.029 782.158L295.021 782.177C292.805 787.771 291.007 792.31 289.84 796.064C288.686 799.779 288.128 802.788 288.424 805.336C288.225 806.448 288.341 807.607 288.646 808.912C288.956 810.238 289.473 811.756 290.088 813.564L290.095 813.585Z" fill="url(#paint6_radial_35_5)" stroke="black"/>
<path d="M215.196 659.692L215.669 659.531L215.196 659.692C217.226 665.661 220.613 671.152 225.165 675.707C232.999 683.546 243.645 687.97 254.76 688.008C265.876 688.046 276.552 683.695 284.439 675.91C289.023 671.386 292.447 665.918 294.518 659.963L294.526 659.941C295.145 658.162 295.665 656.665 295.986 655.355C296.3 654.067 296.432 652.922 296.262 651.823C296.653 649.256 296.134 646.22 294.983 642.452C293.819 638.643 291.987 634.018 289.716 628.284L289.708 628.264L277.14 596.535L277.122 596.49C272.535 584.911 269.074 576.173 265.762 570.334C262.458 564.509 259.192 561.368 254.919 561.368C250.645 561.368 247.379 564.509 244.075 570.334C240.763 576.173 237.302 584.911 232.715 596.49L232.697 596.535L220.129 628.264L220.122 628.283C217.906 633.877 216.108 638.416 214.941 642.171C213.786 645.886 213.229 648.894 213.525 651.442C213.326 652.554 213.441 653.713 213.747 655.019C214.057 656.344 214.573 657.862 215.188 659.671L215.196 659.692Z" fill="url(#paint7_radial_35_5)" stroke="black"/>
<path d="M140.466 516.546L140.939 516.385L140.466 516.546C142.496 522.515 145.883 528.006 150.435 532.561C158.269 540.4 168.915 544.824 180.031 544.862C191.146 544.9 201.822 540.548 209.709 532.764C214.293 528.24 217.717 522.772 219.788 516.817L219.796 516.795C220.415 515.016 220.936 513.519 221.256 512.209C221.57 510.921 221.702 509.776 221.532 508.677C221.923 506.109 221.404 503.074 220.253 499.306C219.089 495.497 217.257 490.872 214.986 485.138L214.978 485.118L202.41 453.389L202.392 453.344C197.805 441.765 194.344 433.027 191.032 427.188C187.728 421.363 184.462 418.222 180.189 418.222C175.916 418.222 172.649 421.363 169.345 427.188C166.033 433.027 162.572 441.765 157.985 453.344L157.967 453.389L145.399 485.118L145.392 485.137C143.176 490.731 141.378 495.27 140.211 499.025C139.057 502.74 138.499 505.748 138.795 508.296C138.596 509.408 138.712 510.567 139.017 511.872C139.327 513.198 139.843 514.716 140.458 516.524L140.466 516.546Z" fill="url(#paint8_radial_35_5)" stroke="black"/>
<path d="M140.467 813.585L140.94 813.424L140.467 813.585C142.498 819.555 145.884 825.046 150.436 829.601C158.27 837.439 168.916 841.864 180.032 841.902C191.147 841.94 201.823 837.588 209.71 829.804C214.294 825.28 217.718 819.812 219.789 813.857L219.797 813.834C220.416 812.055 220.937 810.558 221.257 809.249C221.572 807.961 221.703 806.815 221.533 805.716C221.924 803.149 221.405 800.114 220.254 796.346C219.091 792.537 217.258 787.911 214.987 782.177L214.979 782.158L202.411 750.429L202.393 750.384C197.806 738.805 194.345 730.067 191.033 724.228C187.729 718.403 184.463 715.262 180.19 715.262C175.917 715.262 172.65 718.403 169.346 724.228C166.034 730.067 162.573 738.805 157.986 750.384L157.969 750.429L145.4 782.158L145.393 782.177C143.177 787.771 141.379 792.31 140.212 796.064C139.058 799.779 138.5 802.788 138.796 805.336C138.597 806.448 138.713 807.607 139.018 808.912C139.328 810.238 139.844 811.756 140.46 813.564L140.467 813.585Z" fill="url(#paint9_radial_35_5)" stroke="black"/>
<path d="M65.5674 659.692L66.0408 659.531L65.5674 659.692C67.5981 665.661 70.9844 671.152 75.5369 675.707C83.3711 683.546 94.0167 687.97 105.132 688.008C116.248 688.046 126.924 683.695 134.811 675.91C139.395 671.386 142.818 665.918 144.89 659.963L144.898 659.941C145.517 658.162 146.037 656.665 146.357 655.355C146.672 654.067 146.804 652.922 146.633 651.823C147.025 649.256 146.506 646.22 145.355 642.452C144.191 638.643 142.359 634.018 140.088 628.284L140.08 628.264L127.512 596.535L127.494 596.49C122.907 584.911 119.446 576.173 116.134 570.334C112.83 564.509 109.563 561.368 105.29 561.368C101.017 561.368 97.751 564.509 94.4469 570.334C91.1349 576.173 87.6737 584.911 83.087 596.49L83.0692 596.535L70.5009 628.264L70.4936 628.283C68.2776 633.877 66.4795 638.416 65.3128 642.171C64.1583 645.886 63.6007 648.894 63.8964 651.442C63.6975 652.554 63.8133 653.713 64.1186 655.019C64.4286 656.344 64.9449 657.862 65.5602 659.671L65.5674 659.692Z" fill="url(#paint10_radial_35_5)" stroke="black"/>
<defs>
<linearGradient id="paint0_linear_35_5" x1="782.471" y1="102.747" x2="-24.8868" y2="306.873" gradientUnits="userSpaceOnUse">
<stop offset="0.301615" stop-color="#5DC5E8"/>
<stop offset="0.558406" stop-color="#9BCFE1"/>
<stop offset="0.844734" stop-color="#5DC5E8"/>
</linearGradient>
<radialGradient id="paint1_radial_35_5" cx="0" cy="0" r="1" gradientUnits="userSpaceOnUse" gradientTransform="translate(479.353 509.584) rotate(179.911) scale(52.7432 98.4865)">
<stop offset="0.365652" stop-color="#9BCFE1"/>
<stop offset="0.600266" stop-color="#5DC5E8"/>
</radialGradient>
<radialGradient id="paint2_radial_35_5" cx="0" cy="0" r="1" gradientUnits="userSpaceOnUse" gradientTransform="translate(479.354 806.624) rotate(179.911) scale(52.7432 98.4865)">
<stop offset="0.365652" stop-color="#9BCFE1"/>
<stop offset="0.600266" stop-color="#5DC5E8"/>
</radialGradient>
<radialGradient id="paint3_radial_35_5" cx="0" cy="0" r="1" gradientUnits="userSpaceOnUse" gradientTransform="translate(404.454 652.73) rotate(179.911) scale(52.7432 98.4865)">
<stop offset="0.365652" stop-color="#9BCFE1"/>
<stop offset="0.600266" stop-color="#5DC5E8"/>
</radialGradient>
<radialGradient id="paint4_radial_35_5" cx="0" cy="0" r="1" gradientUnits="userSpaceOnUse" gradientTransform="translate(554.083 652.73) rotate(179.911) scale(52.7432 98.4865)">
<stop offset="0.365652" stop-color="#9BCFE1"/>
<stop offset="0.600266" stop-color="#5DC5E8"/>
</radialGradient>
<radialGradient id="paint5_radial_35_5" cx="0" cy="0" r="1" gradientUnits="userSpaceOnUse" gradientTransform="translate(329.725 509.926) rotate(179.911) scale(52.7432 98.4865)">
<stop offset="0.365652" stop-color="#9BCFE1"/>
<stop offset="0.600266" stop-color="#5DC5E8"/>
</radialGradient>
<radialGradient id="paint6_radial_35_5" cx="0" cy="0" r="1" gradientUnits="userSpaceOnUse" gradientTransform="translate(329.726 806.965) rotate(179.911) scale(52.7432 98.4865)">
<stop offset="0.365652" stop-color="#9BCFE1"/>
<stop offset="0.600266" stop-color="#5DC5E8"/>
</radialGradient>
<radialGradient id="paint7_radial_35_5" cx="0" cy="0" r="1" gradientUnits="userSpaceOnUse" gradientTransform="translate(254.826 653.072) rotate(179.911) scale(52.7432 98.4865)">
<stop offset="0.365652" stop-color="#9BCFE1"/>
<stop offset="0.600266" stop-color="#5DC5E8"/>
</radialGradient>
<radialGradient id="paint8_radial_35_5" cx="0" cy="0" r="1" gradientUnits="userSpaceOnUse" gradientTransform="translate(180.096 509.926) rotate(179.911) scale(52.7432 98.4865)">
<stop offset="0.365652" stop-color="#9BCFE1"/>
<stop offset="0.600266" stop-color="#5DC5E8"/>
</radialGradient>
<radialGradient id="paint9_radial_35_5" cx="0" cy="0" r="1" gradientUnits="userSpaceOnUse" gradientTransform="translate(180.098 806.965) rotate(179.911) scale(52.7432 98.4865)">
<stop offset="0.365652" stop-color="#9BCFE1"/>
<stop offset="0.600266" stop-color="#5DC5E8"/>
</radialGradient>
<radialGradient id="paint10_radial_35_5" cx="0" cy="0" r="1" gradientUnits="userSpaceOnUse" gradientTransform="translate(105.198 653.072) rotate(179.911) scale(52.7432 98.4865)">
<stop offset="0.365652" stop-color="#9BCFE1"/>
<stop offset="0.600266" stop-color="#5DC5E8"/>
</radialGradient>
</defs>
</svg>
