<svg width="593" height="701" viewBox="0 0 593 701" fill="none" xmlns="http://www.w3.org/2000/svg">
<path d="M210.107 365.194L210.42 364.881L210.107 365.194C213.464 368.552 218.025 370.448 222.787 370.464C227.548 370.48 232.122 368.616 235.502 365.281L235.151 364.925L235.502 365.281C237.466 363.342 238.933 360.999 239.821 358.447L239.348 358.283L239.821 358.447L239.828 358.427C240.086 357.686 240.309 357.044 240.447 356.478C240.58 355.933 240.645 355.423 240.575 354.921C240.738 353.782 240.502 352.464 240.02 350.886C239.526 349.269 238.75 347.31 237.796 344.903L237.789 344.883L232.49 331.508L232.473 331.463C230.548 326.603 229.083 322.905 227.677 320.426C226.279 317.961 224.828 316.5 222.854 316.5C220.881 316.5 219.43 317.961 218.031 320.426C216.625 322.905 215.16 326.603 213.235 331.463L213.218 331.508L207.92 344.883L207.912 344.901C206.982 347.251 206.22 349.173 205.725 350.766C205.242 352.322 204.991 353.625 205.112 354.752C205.029 355.261 205.087 355.78 205.216 356.334C205.35 356.907 205.572 357.558 205.828 358.311L205.835 358.331C206.705 360.889 208.156 363.242 210.107 365.194Z" fill="url(#paint0_radial_36_501)" stroke="black"/>
<path d="M205.836 483.549L206.22 483.418L205.836 483.549C206.706 486.107 208.157 488.46 210.107 490.412L210.461 490.058L210.107 490.412C213.464 493.77 218.025 495.666 222.787 495.682C227.549 495.698 232.123 493.834 235.502 490.499C237.466 488.56 238.933 486.217 239.821 483.665L239.821 483.665L239.828 483.645C240.086 482.904 240.309 482.262 240.448 481.696C240.581 481.151 240.645 480.641 240.575 480.139C240.738 479 240.503 477.682 240.021 476.104C239.527 474.487 238.751 472.528 237.797 470.12L237.789 470.101L232.491 456.725L232.473 456.681C230.548 451.821 229.083 448.123 227.677 445.644C226.279 443.179 224.828 441.718 222.855 441.718C220.881 441.718 219.43 443.179 218.032 445.644C216.626 448.123 215.161 451.821 213.236 456.681L213.218 456.726L207.92 470.101L207.913 470.119C206.982 472.469 206.221 474.391 205.726 475.984C205.242 477.54 204.992 478.843 205.113 479.97C205.03 480.479 205.087 480.998 205.217 481.552C205.351 482.124 205.572 482.776 205.829 483.529L205.836 483.549Z" fill="url(#paint1_radial_36_501)" stroke="black"/>
<path d="M174.261 418.675L174.646 418.544L174.261 418.675C175.132 421.233 176.583 423.586 178.533 425.537L178.887 425.184L178.533 425.537C181.89 428.896 186.451 430.791 191.213 430.808C195.975 430.824 200.549 428.96 203.928 425.624C205.892 423.686 207.359 421.343 208.247 418.791L208.247 418.791L208.254 418.771C208.512 418.03 208.735 417.388 208.873 416.822C209.007 416.277 209.071 415.766 209.001 415.264C209.164 414.126 208.929 412.808 208.446 411.23C207.952 409.613 207.177 407.654 206.223 405.246L206.215 405.227L200.917 391.851L200.899 391.807C198.974 386.947 197.509 383.249 196.103 380.77C194.705 378.305 193.254 376.844 191.281 376.844C189.307 376.844 187.856 378.305 186.458 380.77C185.052 383.249 183.587 386.947 181.662 391.807L181.644 391.851L176.346 405.227L176.339 405.245C175.408 407.595 174.647 409.517 174.152 411.11C173.668 412.666 173.418 413.969 173.539 415.096C173.456 415.605 173.513 416.123 173.643 416.677C173.777 417.25 173.998 417.901 174.255 418.654L174.261 418.675Z" fill="url(#paint2_radial_36_501)" stroke="black"/>
<path d="M363.107 365.194L363.42 364.881L363.107 365.194C366.464 368.552 371.025 370.448 375.787 370.464C380.548 370.48 385.122 368.616 388.502 365.281L388.151 364.925L388.502 365.281C390.466 363.342 391.933 360.999 392.821 358.447L392.348 358.283L392.821 358.447L392.828 358.427C393.086 357.686 393.309 357.044 393.447 356.478C393.58 355.933 393.645 355.423 393.575 354.921C393.738 353.782 393.502 352.464 393.02 350.886C392.526 349.269 391.75 347.31 390.796 344.903L390.789 344.883L385.49 331.508L385.473 331.463C383.548 326.603 382.083 322.905 380.677 320.426C379.279 317.961 377.828 316.5 375.854 316.5C373.881 316.5 372.43 317.961 371.031 320.426C369.625 322.905 368.16 326.603 366.235 331.463L366.218 331.508L360.92 344.883L360.912 344.901C359.982 347.251 359.22 349.173 358.725 350.766C358.242 352.322 357.991 353.625 358.112 354.752C358.029 355.261 358.087 355.78 358.216 356.334C358.35 356.907 358.572 357.558 358.828 358.311L358.835 358.331C359.705 360.889 361.156 363.242 363.107 365.194Z" fill="url(#paint3_radial_36_501)" stroke="black"/>
<path d="M358.836 483.549L359.22 483.418L358.836 483.549C359.706 486.107 361.157 488.46 363.107 490.412L363.461 490.058L363.107 490.412C366.464 493.77 371.025 495.666 375.787 495.682C380.549 495.698 385.123 493.834 388.502 490.499C390.466 488.56 391.933 486.217 392.821 483.665L392.821 483.665L392.828 483.645C393.086 482.904 393.309 482.262 393.448 481.696C393.581 481.151 393.645 480.641 393.575 480.139C393.738 479 393.503 477.682 393.021 476.104C392.527 474.487 391.751 472.528 390.797 470.12L390.789 470.101L385.491 456.725L385.473 456.681C383.548 451.821 382.083 448.123 380.677 445.644C379.279 443.179 377.828 441.718 375.855 441.718C373.881 441.718 372.43 443.179 371.032 445.644C369.626 448.123 368.161 451.821 366.236 456.681L366.218 456.726L360.92 470.101L360.913 470.119C359.982 472.469 359.221 474.391 358.726 475.984C358.242 477.54 357.992 478.843 358.113 479.97C358.03 480.479 358.087 480.998 358.217 481.552C358.351 482.124 358.572 482.776 358.829 483.529L358.836 483.549Z" fill="url(#paint4_radial_36_501)" stroke="black"/>
<path d="M327.261 418.675L327.646 418.544L327.261 418.675C328.132 421.233 329.583 423.586 331.533 425.537L331.887 425.184L331.533 425.537C334.89 428.896 339.451 430.791 344.213 430.808C348.975 430.824 353.549 428.96 356.928 425.624C358.892 423.686 360.359 421.343 361.247 418.791L361.247 418.791L361.254 418.771C361.512 418.03 361.735 417.388 361.873 416.822C362.007 416.277 362.071 415.766 362.001 415.264C362.164 414.126 361.929 412.808 361.446 411.23C360.952 409.613 360.177 407.654 359.223 405.246L359.215 405.227L353.917 391.851L353.899 391.807C351.974 386.947 350.509 383.249 349.103 380.77C347.705 378.305 346.254 376.844 344.281 376.844C342.307 376.844 340.856 378.305 339.458 380.77C338.052 383.249 336.587 386.947 334.662 391.807L334.644 391.851L329.346 405.227L329.339 405.245C328.408 407.595 327.647 409.517 327.152 411.11C326.668 412.666 326.418 413.969 326.539 415.096C326.456 415.605 326.513 416.123 326.643 416.677C326.777 417.25 326.998 417.901 327.255 418.654L327.261 418.675Z" fill="url(#paint5_radial_36_501)" stroke="black"/>
<path d="M147 336H207L149.5 408.5L201 406L141 475H188.5L88 569.5L136.5 494L91.5 496.5L141 427.5L91.5 430L147 336Z" fill="url(#paint6_linear_36_501)"/>
<path d="M428 325H488L430.5 397.5L482 395L422 464H469.5L369 558.5L417.5 483L372.5 485.5L422 416.5L372.5 419L428 325Z" fill="url(#paint7_linear_36_501)"/>
<path d="M285.437 317H353L288.252 436.229L346.244 432.118L278.681 545.591H332.168L219 701L273.613 576.837L222.941 580.949L278.681 467.475L222.941 471.587L285.437 317Z" fill="url(#paint8_linear_36_501)"/>
<g filter="url(#filter0_d_36_501)">
<mask id="path-10-outside-1_36_501" maskUnits="userSpaceOnUse" x="0" y="10" width="573" height="331" fill="black">
<rect fill="white" y="10" width="573" height="331"/>
<path fill-rule="evenodd" clip-rule="evenodd" d="M468.994 167.819C468.998 167.38 469 166.94 469 166.5C469 80.6197 398.485 11 311.5 11C234.106 11 169.751 66.1131 156.5 138.756C141.619 130.618 124.591 126 106.5 126C48.234 126 1 173.906 1 233C1 291.925 47.964 339.726 106 339.999V340H106.5H481.5H484V339.968C532.826 338.702 572 300.474 572 253.5C572 205.727 531.482 167 481.5 167C477.257 167 473.082 167.279 468.994 167.819Z"/>
</mask>
<path fill-rule="evenodd" clip-rule="evenodd" d="M468.994 167.819C468.998 167.38 469 166.94 469 166.5C469 80.6197 398.485 11 311.5 11C234.106 11 169.751 66.1131 156.5 138.756C141.619 130.618 124.591 126 106.5 126C48.234 126 1 173.906 1 233C1 291.925 47.964 339.726 106 339.999V340H106.5H481.5H484V339.968C532.826 338.702 572 300.474 572 253.5C572 205.727 531.482 167 481.5 167C477.257 167 473.082 167.279 468.994 167.819Z" fill="url(#paint9_linear_36_501)"/>
<path d="M468.994 167.819L467.994 167.811L467.985 168.961L469.125 168.811L468.994 167.819ZM156.5 138.756L156.02 139.634L157.235 140.298L157.483 138.936L156.5 138.756ZM106 339.999H107V339.004L106.005 338.999L106 339.999ZM106 340H105V341H106V340ZM484 340V341H485V340H484ZM484 339.968L483.974 338.968L483 338.993V339.968H484ZM469.994 167.828C469.998 167.385 470 166.943 470 166.5H468C468 166.937 467.998 167.374 467.994 167.811L469.994 167.828ZM470 166.5C470 80.0554 399.025 10 311.5 10V12C397.945 12 468 81.184 468 166.5H470ZM311.5 10C233.624 10 168.854 65.458 155.516 138.577L157.483 138.936C170.648 66.7682 234.589 12 311.5 12V10ZM156.979 137.879C141.956 129.663 124.764 125 106.5 125V127C124.419 127 141.282 131.574 156.02 139.634L156.979 137.879ZM106.5 125C47.6684 125 0 173.367 0 233H2C2 174.444 48.7995 127 106.5 127V125ZM0 233C0 292.463 47.3959 340.723 105.995 340.999L106.005 338.999C48.532 338.728 2 291.388 2 233H0ZM105 339.999V340H107V339.999H105ZM106 341H106.5V339H106V341ZM106.5 341H481.5V339H106.5V341ZM481.5 341H484V339H481.5V341ZM485 340V339.968H483V340H485ZM571 253.5C571 299.889 532.301 337.715 483.974 338.968L484.026 340.967C533.351 339.689 573 301.058 573 253.5H571ZM481.5 168C530.973 168 571 206.322 571 253.5H573C573 205.133 531.991 166 481.5 166V168ZM469.125 168.811C473.17 168.276 477.301 168 481.5 168V166C477.213 166 472.994 166.282 468.863 166.828L469.125 168.811Z" fill="black" mask="url(#path-10-outside-1_36_501)"/>
</g>
<defs>
<filter id="filter0_d_36_501" x="0" y="0" width="593" height="351" filterUnits="userSpaceOnUse" color-interpolation-filters="sRGB">
<feFlood flood-opacity="0" result="BackgroundImageFix"/>
<feColorMatrix in="SourceAlpha" type="matrix" values="0 0 0 0 0 0 0 0 0 0 0 0 0 0 0 0 0 0 127 0" result="hardAlpha"/>
<feOffset dx="10"/>
<feGaussianBlur stdDeviation="5"/>
<feComposite in2="hardAlpha" operator="out"/>
<feColorMatrix type="matrix" values="0 0 0 0 0 0 0 0 0 0 0 0 0 0 0 0 0 0 0.3 0"/>
<feBlend mode="normal" in2="BackgroundImageFix" result="effect1_dropShadow_36_501"/>
<feBlend mode="normal" in="SourceGraphic" in2="effect1_dropShadow_36_501" result="shape"/>
</filter>
<radialGradient id="paint0_radial_36_501" cx="0" cy="0" r="1" gradientUnits="userSpaceOnUse" gradientTransform="translate(222.815 355.447) rotate(179.911) scale(22.234 41.5173)">
<stop offset="0.365652" stop-color="#9BCFE1"/>
<stop offset="0.600266" stop-color="#5DC5E8"/>
</radialGradient>
<radialGradient id="paint1_radial_36_501" cx="0" cy="0" r="1" gradientUnits="userSpaceOnUse" gradientTransform="translate(222.816 480.665) rotate(179.911) scale(22.234 41.5173)">
<stop offset="0.365652" stop-color="#9BCFE1"/>
<stop offset="0.600266" stop-color="#5DC5E8"/>
</radialGradient>
<radialGradient id="paint2_radial_36_501" cx="0" cy="0" r="1" gradientUnits="userSpaceOnUse" gradientTransform="translate(191.242 415.791) rotate(179.911) scale(22.234 41.5173)">
<stop offset="0.365652" stop-color="#9BCFE1"/>
<stop offset="0.600266" stop-color="#5DC5E8"/>
</radialGradient>
<radialGradient id="paint3_radial_36_501" cx="0" cy="0" r="1" gradientUnits="userSpaceOnUse" gradientTransform="translate(375.815 355.447) rotate(179.911) scale(22.234 41.5173)">
<stop offset="0.365652" stop-color="#9BCFE1"/>
<stop offset="0.600266" stop-color="#5DC5E8"/>
</radialGradient>
<radialGradient id="paint4_radial_36_501" cx="0" cy="0" r="1" gradientUnits="userSpaceOnUse" gradientTransform="translate(375.816 480.665) rotate(179.911) scale(22.234 41.5173)">
<stop offset="0.365652" stop-color="#9BCFE1"/>
<stop offset="0.600266" stop-color="#5DC5E8"/>
</radialGradient>
<radialGradient id="paint5_radial_36_501" cx="0" cy="0" r="1" gradientUnits="userSpaceOnUse" gradientTransform="translate(344.242 415.791) rotate(179.911) scale(22.234 41.5173)">
<stop offset="0.365652" stop-color="#9BCFE1"/>
<stop offset="0.600266" stop-color="#5DC5E8"/>
</radialGradient>
<linearGradient id="paint6_linear_36_501" x1="147.5" y1="336" x2="147.5" y2="569.5" gradientUnits="userSpaceOnUse">
<stop stop-color="#FFA500"/>
<stop offset="0.438483" stop-color="#FFD88C"/>
</linearGradient>
<linearGradient id="paint7_linear_36_501" x1="428.5" y1="325" x2="428.5" y2="558.5" gradientUnits="userSpaceOnUse">
<stop stop-color="#FFA500"/>
<stop offset="0.438483" stop-color="#FFD88C"/>
</linearGradient>
<linearGradient id="paint8_linear_36_501" x1="286" y1="317" x2="286" y2="701" gradientUnits="userSpaceOnUse">
<stop stop-color="#FFA500"/>
<stop offset="0.438483" stop-color="#FFD88C"/>
</linearGradient>
<linearGradient id="paint9_linear_36_501" x1="667" y1="96.5" x2="-20.5" y2="271.5" gradientUnits="userSpaceOnUse">
<stop offset="0.301615" stop-color="#0A1F33"/>
<stop offset="0.591805" stop-color="#1C3549"/>
<stop offset="0.844734" stop-color="#0A1F33"/>
</linearGradient>
</defs>
</svg>
