<svg width="469" height="469" viewBox="0 0 469 469" fill="none" xmlns="http://www.w3.org/2000/svg">
<mask id="path-1-outside-1_25_11" maskUnits="userSpaceOnUse" x="0.235962" y="0.23584" width="469" height="469" fill="black">
<rect fill="white" x="0.235962" y="0.23584" width="469" height="469"/>
<path fill-rule="evenodd" clip-rule="evenodd" d="M283.543 54.5831L234.618 2.23584L185.693 54.5831C177.904 56.492 170.304 58.846 162.923 61.6148L90.998 46.6169L83.7616 116.388C78.711 122.21 74.0259 128.33 69.7396 134.715L2.23596 162.808L39.5017 223.298C39.2652 227.043 39.1453 230.817 39.1453 234.618C39.1453 238.419 39.2652 242.193 39.5017 245.938L2.23596 306.428L69.7395 334.521C74.0259 340.906 78.711 347.026 83.7616 352.848L90.998 422.619L162.923 407.621C170.304 410.39 177.904 412.744 185.693 414.653L234.618 467L283.543 414.653C291.332 412.744 298.932 410.39 306.313 407.621L378.238 422.619L385.474 352.848C390.525 347.026 395.21 340.906 399.497 334.521L467 306.428L429.734 245.938C429.971 242.193 430.091 238.419 430.091 234.618C430.091 230.817 429.971 227.042 429.734 223.298L467 162.808L399.497 134.715C395.21 128.33 390.525 122.21 385.474 116.388L378.238 46.6169L306.313 61.6148C298.932 58.8459 291.332 56.492 283.543 54.5831Z"/>
</mask>
<path fill-rule="evenodd" clip-rule="evenodd" d="M283.543 54.5831L234.618 2.23584L185.693 54.5831C177.904 56.492 170.304 58.846 162.923 61.6148L90.998 46.6169L83.7616 116.388C78.711 122.21 74.0259 128.33 69.7396 134.715L2.23596 162.808L39.5017 223.298C39.2652 227.043 39.1453 230.817 39.1453 234.618C39.1453 238.419 39.2652 242.193 39.5017 245.938L2.23596 306.428L69.7395 334.521C74.0259 340.906 78.711 347.026 83.7616 352.848L90.998 422.619L162.923 407.621C170.304 410.39 177.904 412.744 185.693 414.653L234.618 467L283.543 414.653C291.332 412.744 298.932 410.39 306.313 407.621L378.238 422.619L385.474 352.848C390.525 347.026 395.21 340.906 399.497 334.521L467 306.428L429.734 245.938C429.971 242.193 430.091 238.419 430.091 234.618C430.091 230.817 429.971 227.042 429.734 223.298L467 162.808L399.497 134.715C395.21 128.33 390.525 122.21 385.474 116.388L378.238 46.6169L306.313 61.6148C298.932 58.8459 291.332 56.492 283.543 54.5831Z" fill="url(#paint0_radial_25_11)"/>
<path d="M234.618 2.23584L235.349 1.55302L234.618 0.771335L233.887 1.55302L234.618 2.23584ZM283.543 54.5831L282.813 55.2659L283.016 55.4835L283.305 55.5543L283.543 54.5831ZM185.693 54.5831L185.931 55.5544L186.22 55.4835L186.423 55.2659L185.693 54.5831ZM162.923 61.6148L162.719 62.5937L163.003 62.6529L163.274 62.551L162.923 61.6148ZM90.998 46.6169L91.2021 45.6379L90.1176 45.4118L90.0034 46.5137L90.998 46.6169ZM83.7616 116.388L84.517 117.043L84.7237 116.805L84.7562 116.491L83.7616 116.388ZM69.7396 134.715L70.1238 135.638L70.4019 135.523L70.5699 135.272L69.7396 134.715ZM2.23596 162.808L1.85174 161.885L0.769995 162.335L1.38456 163.332L2.23596 162.808ZM39.5017 223.298L40.4997 223.361L40.5197 223.044L40.3531 222.773L39.5017 223.298ZM39.5017 245.938L40.3531 246.462L40.5197 246.192L40.4997 245.875L39.5017 245.938ZM2.23596 306.428L1.38456 305.903L0.769995 306.901L1.85174 307.351L2.23596 306.428ZM69.7395 334.521L70.5698 333.963L70.4019 333.713L70.1238 333.598L69.7395 334.521ZM83.7616 352.848L84.7562 352.745L84.7237 352.431L84.517 352.193L83.7616 352.848ZM90.998 422.619L90.0034 422.722L90.1176 423.824L91.2021 423.598L90.998 422.619ZM162.923 407.621L163.274 406.685L163.003 406.583L162.719 406.642L162.923 407.621ZM185.693 414.653L186.423 413.97L186.22 413.752L185.931 413.681L185.693 414.653ZM234.618 467L233.887 467.683L234.618 468.465L235.349 467.683L234.618 467ZM283.543 414.653L283.305 413.682L283.016 413.752L282.813 413.97L283.543 414.653ZM306.313 407.621L306.517 406.642L306.233 406.583L305.962 406.685L306.313 407.621ZM378.238 422.619L378.034 423.598L379.118 423.824L379.233 422.722L378.238 422.619ZM385.474 352.848L384.719 352.193L384.512 352.431L384.48 352.745L385.474 352.848ZM399.497 334.521L399.112 333.598L398.834 333.713L398.666 333.963L399.497 334.521ZM467 306.428L467.384 307.351L468.466 306.901L467.851 305.903L467 306.428ZM429.734 245.938L428.736 245.875L428.716 246.192L428.883 246.462L429.734 245.938ZM429.734 223.298L428.883 222.773L428.716 223.044L428.736 223.361L429.734 223.298ZM467 162.808L467.851 163.332L468.466 162.335L467.384 161.885L467 162.808ZM399.497 134.715L398.666 135.272L398.834 135.523L399.112 135.638L399.497 134.715ZM385.474 116.388L384.48 116.491L384.512 116.805L384.719 117.043L385.474 116.388ZM378.238 46.6169L379.233 46.5137L379.118 45.4118L378.034 45.6379L378.238 46.6169ZM306.313 61.6148L305.962 62.551L306.233 62.6529L306.517 62.5937L306.313 61.6148ZM233.887 2.91866L282.813 55.2659L284.274 53.9003L235.349 1.55302L233.887 2.91866ZM186.423 55.2659L235.349 2.91866L233.887 1.55302L184.962 53.9003L186.423 55.2659ZM163.274 62.551C170.618 59.7961 178.181 57.4538 185.931 55.5544L185.455 53.6119C177.628 55.5302 169.989 57.8958 162.572 60.6785L163.274 62.551ZM90.7939 47.5958L162.719 62.5937L163.127 60.6358L91.2021 45.6379L90.7939 47.5958ZM84.7562 116.491L91.9927 46.72L90.0034 46.5137L82.7669 116.285L84.7562 116.491ZM70.5699 135.272C74.833 128.922 79.4931 122.835 84.517 117.043L83.0062 115.733C77.9289 121.586 73.2188 127.738 68.9093 134.158L70.5699 135.272ZM2.62019 163.731L70.1238 135.638L69.3554 133.792L1.85174 161.885L2.62019 163.731ZM40.3531 222.773L3.08736 162.283L1.38456 163.332L38.6503 223.823L40.3531 222.773ZM40.1453 234.618C40.1453 230.838 40.2646 227.085 40.4997 223.361L38.5037 223.235C38.2659 227 38.1453 230.796 38.1453 234.618H40.1453ZM40.4997 245.875C40.2646 242.151 40.1453 238.398 40.1453 234.618H38.1453C38.1453 238.44 38.2659 242.235 38.5037 246.001L40.4997 245.875ZM3.08736 306.952L40.3531 246.462L38.6503 245.413L1.38456 305.903L3.08736 306.952ZM70.1238 333.598L2.62019 305.505L1.85174 307.351L69.3553 335.444L70.1238 333.598ZM84.517 352.193C79.4931 346.401 74.833 340.314 70.5698 333.963L68.9093 335.078C73.2187 341.498 77.9289 347.65 83.0062 353.503L84.517 352.193ZM91.9927 422.516L84.7562 352.745L82.7669 352.951L90.0034 422.722L91.9927 422.516ZM162.719 406.642L90.7939 421.64L91.2021 423.598L163.127 408.6L162.719 406.642ZM185.931 413.681C178.181 411.782 170.618 409.44 163.274 406.685L162.572 408.557C169.989 411.34 177.628 413.706 185.455 415.624L185.931 413.681ZM235.349 466.317L186.423 413.97L184.962 415.336L233.887 467.683L235.349 466.317ZM282.813 413.97L233.887 466.317L235.349 467.683L284.274 415.336L282.813 413.97ZM305.962 406.685C298.618 409.44 291.055 411.782 283.305 413.682L283.781 415.624C291.608 413.706 299.247 411.34 306.664 408.557L305.962 406.685ZM378.442 421.64L306.517 406.642L306.109 408.6L378.034 423.598L378.442 421.64ZM384.48 352.745L377.243 422.516L379.233 422.722L386.469 352.951L384.48 352.745ZM398.666 333.963C394.403 340.314 389.743 346.401 384.719 352.193L386.23 353.503C391.307 347.65 396.017 341.498 400.327 335.078L398.666 333.963ZM466.616 305.505L399.112 333.598L399.881 335.444L467.384 307.351L466.616 305.505ZM428.883 246.462L466.149 306.952L467.851 305.903L430.586 245.413L428.883 246.462ZM429.091 234.618C429.091 238.398 428.972 242.151 428.736 245.875L430.732 246.001C430.97 242.235 431.091 238.44 431.091 234.618H429.091ZM428.736 223.361C428.972 227.085 429.091 230.838 429.091 234.618H431.091C431.091 230.796 430.97 227 430.732 223.235L428.736 223.361ZM466.149 162.283L428.883 222.773L430.586 223.822L467.851 163.332L466.149 162.283ZM399.112 135.638L466.616 163.731L467.384 161.885L399.881 133.792L399.112 135.638ZM384.719 117.043C389.743 122.835 394.403 128.922 398.666 135.272L400.327 134.158C396.017 127.738 391.307 121.586 386.23 115.733L384.719 117.043ZM377.243 46.72L384.48 116.491L386.469 116.285L379.233 46.5137L377.243 46.72ZM306.517 62.5937L378.442 47.5958L378.034 45.6379L306.109 60.6358L306.517 62.5937ZM283.305 55.5543C291.055 57.4538 298.618 59.7961 305.962 62.551L306.664 60.6785C299.247 57.8958 291.608 55.5302 283.781 53.6118L283.305 55.5543Z" fill="black" mask="url(#path-1-outside-1_25_11)"/>
<defs>
<radialGradient id="paint0_radial_25_11" cx="0" cy="0" r="1" gradientUnits="userSpaceOnUse" gradientTransform="translate(234.618 234.618) rotate(90) scale(232.382 232.382)">
<stop offset="0.575" stop-color="#FFD88C"/>
<stop offset="0.9998" stop-color="#FFA500"/>
</radialGradient>
</defs>
</svg>
