<svg width="286" height="213" viewBox="0 0 286 213" fill="none" xmlns="http://www.w3.org/2000/svg">
<mask id="path-1-outside-1_36_124" maskUnits="userSpaceOnUse" x="0" y="0" width="286" height="213" fill="black">
<rect fill="white" width="286" height="213"/>
<path fill-rule="evenodd" clip-rule="evenodd" d="M204.92 74.5184C198.203 79.1345 190.244 81.6055 182.094 81.6055H11.8817C6.3171 81.6055 1.80605 77.0945 1.80605 71.5298C1.80605 65.9652 6.31709 61.4541 11.8817 61.4541H182.075C182.085 61.4541 182.094 61.4625 182.094 61.4728C182.094 61.4831 182.102 61.4915 182.112 61.4915C186.189 61.4877 190.168 60.2501 193.528 57.9413C196.893 55.629 199.477 52.3509 200.941 48.5395C202.404 44.7282 202.678 40.5626 201.725 36.5926C200.773 32.6226 198.639 29.0347 195.605 26.3022C192.572 23.5698 188.781 21.8213 184.734 21.2874C180.686 20.7536 176.572 21.4595 172.933 23.3119C169.295 25.1644 166.304 28.0764 164.355 31.6637C164.02 32.2804 163.718 32.9121 163.45 33.5561C161.319 38.6852 157.537 43.8744 152.012 44.4529C146.488 45.0314 141.411 40.9672 142.215 35.4713C142.898 30.7983 144.402 26.2557 146.681 22.0602C150.573 14.8989 156.544 9.08566 163.807 5.38757C171.07 1.68948 179.283 0.280337 187.364 1.34608C195.444 2.41182 203.011 5.90236 209.067 11.3571C215.123 16.8119 219.383 23.9745 221.284 31.8999C223.186 39.8252 222.64 48.1409 219.718 55.7496C216.797 63.3582 211.637 69.9023 204.92 74.5184ZM238.774 138.131C232.057 133.515 224.098 131.043 215.948 131.043H45.736C40.1714 131.043 35.6604 135.555 35.6604 141.119C35.6604 146.684 40.1714 151.195 45.736 151.195H215.929C215.94 151.195 215.948 151.187 215.948 151.176C215.948 151.171 215.95 151.166 215.953 151.163C215.957 151.16 215.961 151.158 215.967 151.158C220.043 151.161 224.023 152.399 227.382 154.708C230.747 157.02 233.332 160.298 234.795 164.109C236.258 167.921 236.532 172.086 235.579 176.056C234.627 180.026 232.493 183.614 229.46 186.347C226.426 189.079 222.635 190.828 218.588 191.362C214.54 191.895 210.426 191.19 206.788 189.337C203.149 187.485 200.158 184.573 198.209 180.985C197.874 180.369 197.572 179.737 197.305 179.093C195.173 173.964 191.391 168.775 185.867 168.196C180.343 167.618 175.266 171.682 176.069 177.178C176.753 181.851 178.256 186.393 180.536 190.589C184.427 197.75 190.398 203.563 197.661 207.261C204.924 210.96 213.138 212.369 221.218 211.303C229.298 210.237 236.866 206.747 242.921 201.292C248.977 195.837 253.237 188.675 255.138 180.749C257.04 172.824 256.494 164.508 253.572 156.899C250.651 149.291 245.491 142.747 238.774 138.131ZM245.483 117.072H245.503C251.246 117.069 256.919 115.789 262.128 113.322C267.343 110.852 271.966 107.251 275.676 102.771C279.385 98.2906 282.091 93.0385 283.605 87.3814C285.119 81.7243 285.405 75.7984 284.441 70.0172C283.478 64.2361 281.29 58.7389 278.028 53.9094C274.767 49.0799 270.512 45.0343 265.559 42.0551C260.607 39.0759 255.077 37.2348 249.354 36.6603C246.931 36.417 244.498 36.4033 242.087 36.6155C236.614 37.097 233.863 42.9079 235.647 48.1047L236.149 49.5683C237.687 54.0506 242.707 56.2042 247.422 56.6776C250.289 56.9654 253.059 57.8876 255.54 59.38C258.02 60.8724 260.152 62.8989 261.786 65.3181C263.419 67.7373 264.516 70.491 264.998 73.3869C265.481 76.2829 265.338 79.2513 264.579 82.0851C263.821 84.9189 262.465 87.5498 260.607 89.7941C258.749 92.0385 256.433 93.8422 253.821 95.0795C251.22 96.3112 248.389 96.952 245.522 96.9578C245.516 96.9578 245.511 96.9551 245.507 96.9508C245.505 96.9476 245.503 96.9436 245.503 96.9391C245.503 96.9288 245.495 96.9205 245.485 96.9205H11.0757C5.51104 96.9205 1 101.432 1 106.996C1 112.561 5.51102 117.072 11.0757 117.072H245.483Z"/>
</mask>
<path fill-rule="evenodd" clip-rule="evenodd" d="M204.92 74.5184C198.203 79.1345 190.244 81.6055 182.094 81.6055H11.8817C6.3171 81.6055 1.80605 77.0945 1.80605 71.5298C1.80605 65.9652 6.31709 61.4541 11.8817 61.4541H182.075C182.085 61.4541 182.094 61.4625 182.094 61.4728C182.094 61.4831 182.102 61.4915 182.112 61.4915C186.189 61.4877 190.168 60.2501 193.528 57.9413C196.893 55.629 199.477 52.3509 200.941 48.5395C202.404 44.7282 202.678 40.5626 201.725 36.5926C200.773 32.6226 198.639 29.0347 195.605 26.3022C192.572 23.5698 188.781 21.8213 184.734 21.2874C180.686 20.7536 176.572 21.4595 172.933 23.3119C169.295 25.1644 166.304 28.0764 164.355 31.6637C164.02 32.2804 163.718 32.9121 163.45 33.5561C161.319 38.6852 157.537 43.8744 152.012 44.4529C146.488 45.0314 141.411 40.9672 142.215 35.4713C142.898 30.7983 144.402 26.2557 146.681 22.0602C150.573 14.8989 156.544 9.08566 163.807 5.38757C171.07 1.68948 179.283 0.280337 187.364 1.34608C195.444 2.41182 203.011 5.90236 209.067 11.3571C215.123 16.8119 219.383 23.9745 221.284 31.8999C223.186 39.8252 222.64 48.1409 219.718 55.7496C216.797 63.3582 211.637 69.9023 204.92 74.5184ZM238.774 138.131C232.057 133.515 224.098 131.043 215.948 131.043H45.736C40.1714 131.043 35.6604 135.555 35.6604 141.119C35.6604 146.684 40.1714 151.195 45.736 151.195H215.929C215.94 151.195 215.948 151.187 215.948 151.176C215.948 151.171 215.95 151.166 215.953 151.163C215.957 151.16 215.961 151.158 215.967 151.158C220.043 151.161 224.023 152.399 227.382 154.708C230.747 157.02 233.332 160.298 234.795 164.109C236.258 167.921 236.532 172.086 235.579 176.056C234.627 180.026 232.493 183.614 229.46 186.347C226.426 189.079 222.635 190.828 218.588 191.362C214.54 191.895 210.426 191.19 206.788 189.337C203.149 187.485 200.158 184.573 198.209 180.985C197.874 180.369 197.572 179.737 197.305 179.093C195.173 173.964 191.391 168.775 185.867 168.196C180.343 167.618 175.266 171.682 176.069 177.178C176.753 181.851 178.256 186.393 180.536 190.589C184.427 197.75 190.398 203.563 197.661 207.261C204.924 210.96 213.138 212.369 221.218 211.303C229.298 210.237 236.866 206.747 242.921 201.292C248.977 195.837 253.237 188.675 255.138 180.749C257.04 172.824 256.494 164.508 253.572 156.899C250.651 149.291 245.491 142.747 238.774 138.131ZM245.483 117.072H245.503C251.246 117.069 256.919 115.789 262.128 113.322C267.343 110.852 271.966 107.251 275.676 102.771C279.385 98.2906 282.091 93.0385 283.605 87.3814C285.119 81.7243 285.405 75.7984 284.441 70.0172C283.478 64.2361 281.29 58.7389 278.028 53.9094C274.767 49.0799 270.512 45.0343 265.559 42.0551C260.607 39.0759 255.077 37.2348 249.354 36.6603C246.931 36.417 244.498 36.4033 242.087 36.6155C236.614 37.097 233.863 42.9079 235.647 48.1047L236.149 49.5683C237.687 54.0506 242.707 56.2042 247.422 56.6776C250.289 56.9654 253.059 57.8876 255.54 59.38C258.02 60.8724 260.152 62.8989 261.786 65.3181C263.419 67.7373 264.516 70.491 264.998 73.3869C265.481 76.2829 265.338 79.2513 264.579 82.0851C263.821 84.9189 262.465 87.5498 260.607 89.7941C258.749 92.0385 256.433 93.8422 253.821 95.0795C251.22 96.3112 248.389 96.952 245.522 96.9578C245.516 96.9578 245.511 96.9551 245.507 96.9508C245.505 96.9476 245.503 96.9436 245.503 96.9391C245.503 96.9288 245.495 96.9205 245.485 96.9205H11.0757C5.51104 96.9205 1 101.432 1 106.996C1 112.561 5.51102 117.072 11.0757 117.072H245.483Z" fill="#C9E4E7"/>
<path d="M204.92 74.5184L205.486 75.3426L205.486 75.3426L204.92 74.5184ZM182.112 61.4915L182.113 62.4915L182.113 62.4915L182.112 61.4915ZM193.528 57.9413L194.094 58.7655L194.094 58.7655L193.528 57.9413ZM200.941 48.5395L201.874 48.898L201.874 48.898L200.941 48.5395ZM201.725 36.5926L202.698 36.3593L202.698 36.3593L201.725 36.5926ZM195.605 26.3022L196.275 25.5592L196.275 25.5592L195.605 26.3022ZM184.734 21.2874L184.864 20.296L184.864 20.296L184.734 21.2874ZM172.933 23.3119L172.48 22.4208L172.48 22.4208L172.933 23.3119ZM164.355 31.6637L165.233 32.1411L165.233 32.1411L164.355 31.6637ZM163.45 33.5561L164.374 33.9398L164.374 33.9398L163.45 33.5561ZM152.012 44.4529L152.117 45.4475L152.117 45.4475L152.012 44.4529ZM142.215 35.4713L141.226 35.3266L141.226 35.3266L142.215 35.4713ZM146.681 22.0602L145.803 21.5828L145.803 21.5828L146.681 22.0602ZM163.807 5.38757L164.261 6.2787L164.261 6.2787L163.807 5.38757ZM187.364 1.34608L187.233 2.33749L187.233 2.33749L187.364 1.34608ZM209.067 11.3571L208.398 12.1001L208.398 12.1001L209.067 11.3571ZM221.284 31.8999L220.312 32.1332L220.312 32.1332L221.284 31.8999ZM215.953 151.163L215.242 150.461L215.241 150.461L215.953 151.163ZM215.967 151.158L215.968 150.158H215.967V151.158ZM227.382 154.708L227.949 153.884L227.949 153.884L227.382 154.708ZM234.795 164.109L233.861 164.468L233.861 164.468L234.795 164.109ZM235.579 176.056L236.552 176.29L236.552 176.29L235.579 176.056ZM229.46 186.347L228.79 185.604L228.79 185.604L229.46 186.347ZM218.588 191.362L218.457 190.37L218.457 190.37L218.588 191.362ZM206.788 189.337L206.334 190.228L206.334 190.228L206.788 189.337ZM198.209 180.985L199.088 180.508L199.088 180.508L198.209 180.985ZM197.305 179.093L198.228 178.709L198.228 178.709L197.305 179.093ZM176.069 177.178L175.08 177.322L175.08 177.322L176.069 177.178ZM180.536 190.589L181.414 190.111L181.414 190.111L180.536 190.589ZM197.661 207.261L198.115 206.37L198.115 206.37L197.661 207.261ZM221.218 211.303L221.087 210.312L221.087 210.312L221.218 211.303ZM242.921 201.292L242.252 200.549L242.252 200.549L242.921 201.292ZM255.138 180.749L256.111 180.982L256.111 180.982L255.138 180.749ZM245.503 117.072L245.503 118.072L245.504 118.072L245.503 117.072ZM262.128 113.322L261.7 112.418L261.7 112.418L262.128 113.322ZM275.676 102.771L274.905 102.133L274.905 102.133L275.676 102.771ZM283.605 87.3814L282.639 87.1229L282.639 87.1229L283.605 87.3814ZM284.441 70.0172L283.455 70.1816L283.455 70.1816L284.441 70.0172ZM278.028 53.9094L278.857 53.3497L278.857 53.3497L278.028 53.9094ZM249.354 36.6603L249.454 35.6653L249.454 35.6653L249.354 36.6603ZM242.087 36.6155L241.999 35.6193L241.999 35.6193L242.087 36.6155ZM235.647 48.1047L234.701 48.4293L234.701 48.4293L235.647 48.1047ZM236.149 49.5683L237.095 49.2438L237.095 49.2438L236.149 49.5683ZM247.422 56.6776L247.522 55.6826L247.522 55.6826L247.422 56.6776ZM255.54 59.38L255.024 60.2369L255.024 60.2369L255.54 59.38ZM261.786 65.3181L260.957 65.8777L260.957 65.8777L261.786 65.3181ZM264.579 82.0851L263.613 81.8266L263.613 81.8266L264.579 82.0851ZM253.821 95.0795L254.249 95.9833L254.249 95.9833L253.821 95.0795ZM245.522 96.9578L245.52 95.9578L245.519 95.9578L245.522 96.9578ZM245.507 96.9508L244.728 97.5778L244.729 97.579L245.507 96.9508ZM182.094 82.6055C190.446 82.6055 198.602 80.0731 205.486 75.3426L204.353 73.6943C197.803 78.1958 190.042 80.6055 182.094 80.6055V82.6055ZM11.8817 82.6055H182.094V80.6055H11.8817V82.6055ZM0.806055 71.5298C0.806055 77.6468 5.76481 82.6055 11.8817 82.6055V80.6055C6.86938 80.6055 2.80605 76.5422 2.80605 71.5298H0.806055ZM11.8817 60.4541C5.76481 60.4541 0.806055 65.4129 0.806055 71.5298H2.80605C2.80605 66.5175 6.86938 62.4541 11.8817 62.4541V60.4541ZM182.075 60.4541H11.8817V62.4541H182.075V60.4541ZM183.094 61.4728C183.094 60.9098 182.637 60.4541 182.075 60.4541V62.4541C181.533 62.4541 181.094 62.0152 181.094 61.4728H183.094ZM182.112 60.4915C182.654 60.491 183.094 60.9303 183.094 61.4728H181.094C181.094 62.0359 181.55 62.4919 182.113 62.4915L182.112 60.4915ZM192.962 57.1172C189.768 59.3116 185.986 60.4879 182.111 60.4915L182.113 62.4915C186.391 62.4875 190.568 61.1886 194.094 58.7655L192.962 57.1172ZM200.007 48.1811C198.616 51.8037 196.16 54.9194 192.962 57.1172L194.094 58.7655C197.626 56.3387 200.338 52.8982 201.874 48.898L200.007 48.1811ZM200.753 36.8259C201.658 40.5993 201.398 44.5585 200.007 48.1811L201.874 48.898C203.41 44.8978 203.697 40.526 202.698 36.3593L200.753 36.8259ZM194.936 27.0452C197.819 29.6423 199.847 33.0525 200.753 36.8259L202.698 36.3593C201.698 32.1926 199.458 28.427 196.275 25.5592L194.936 27.0452ZM184.603 22.2789C188.45 22.7863 192.053 24.4482 194.936 27.0452L196.275 25.5592C193.091 22.6914 189.112 20.8563 184.864 20.296L184.603 22.2789ZM173.387 24.2031C176.845 22.4424 180.756 21.7714 184.603 22.2789L184.864 20.296C180.616 19.7357 176.298 20.4766 172.48 22.4208L173.387 24.2031ZM165.233 32.1411C167.086 28.7315 169.929 25.9638 173.387 24.2031L172.48 22.4208C168.661 24.365 165.522 27.4213 163.476 31.1862L165.233 32.1411ZM164.374 33.9398C164.628 33.3277 164.915 32.7273 165.233 32.1411L163.476 31.1862C163.124 31.8335 162.808 32.4965 162.527 33.1724L164.374 33.9398ZM152.117 45.4475C158.231 44.8071 162.219 39.1259 164.374 33.9398L162.527 33.1723C160.419 38.2446 156.842 42.9417 151.908 43.4583L152.117 45.4475ZM141.226 35.3266C140.301 41.6463 146.135 46.0739 152.117 45.4475L151.908 43.4583C146.842 43.9889 142.521 40.2882 143.205 35.616L141.226 35.3266ZM145.803 21.5828C143.466 25.8823 141.926 30.5377 141.226 35.3266L143.205 35.616C143.871 31.059 145.337 26.629 147.56 22.5377L145.803 21.5828ZM163.353 4.49643C155.91 8.28628 149.791 14.2438 145.803 21.5828L147.56 22.5377C151.355 15.554 157.178 9.88504 164.261 6.2787L163.353 4.49643ZM187.494 0.354664C179.214 -0.73752 170.796 0.706587 163.353 4.49643L164.261 6.2787C171.343 2.67237 179.353 1.29819 187.233 2.33749L187.494 0.354664ZM209.736 10.6141C203.53 5.024 195.775 1.44685 187.494 0.354664L187.233 2.33749C195.113 3.37679 202.492 6.78072 208.398 12.1001L209.736 10.6141ZM222.257 31.6666C220.308 23.5445 215.942 16.2042 209.736 10.6141L208.398 12.1001C214.303 17.4195 218.457 24.4044 220.312 32.1332L222.257 31.6666ZM220.652 56.108C223.646 48.3105 224.205 39.7886 222.257 31.6666L220.312 32.1332C222.166 39.8619 221.634 47.9712 218.785 55.3911L220.652 56.108ZM205.486 75.3426C212.37 70.612 217.658 63.9055 220.652 56.108L218.785 55.3911C215.936 62.811 210.904 69.1927 204.353 73.6943L205.486 75.3426ZM215.948 132.043C223.896 132.043 231.657 134.453 238.208 138.955L239.34 137.306C232.457 132.576 224.3 130.043 215.948 130.043V132.043ZM45.736 132.043H215.948V130.043H45.736V132.043ZM36.6604 141.119C36.6604 136.107 40.7237 132.043 45.736 132.043V130.043C39.6191 130.043 34.6604 135.002 34.6604 141.119H36.6604ZM45.736 150.195C40.7237 150.195 36.6604 146.132 36.6604 141.119H34.6604C34.6604 147.236 39.6191 152.195 45.736 152.195V150.195ZM215.929 150.195H45.736V152.195H215.929V150.195ZM214.948 151.176C214.948 150.634 215.388 150.195 215.929 150.195V152.195C216.491 152.195 216.948 151.739 216.948 151.176H214.948ZM215.241 150.461C215.061 150.644 214.948 150.898 214.948 151.176H216.948C216.948 151.444 216.839 151.689 216.665 151.865L215.241 150.461ZM215.967 150.158C215.684 150.158 215.425 150.274 215.242 150.461L216.665 151.865C216.488 152.045 216.239 152.158 215.967 152.158V150.158ZM227.949 153.884C224.422 151.46 220.246 150.162 215.968 150.158L215.966 152.158C219.84 152.161 223.623 153.337 226.816 155.532L227.949 153.884ZM235.729 163.751C234.193 159.751 231.48 156.31 227.949 153.884L226.816 155.532C230.014 157.73 232.471 160.845 233.861 164.468L235.729 163.751ZM236.552 176.29C237.552 172.123 237.265 167.751 235.729 163.751L233.861 164.468C235.252 168.091 235.512 172.05 234.607 175.823L236.552 176.29ZM230.129 187.09C233.313 184.222 235.552 180.456 236.552 176.29L234.607 175.823C233.702 179.596 231.674 183.007 228.79 185.604L230.129 187.09ZM218.719 192.353C222.967 191.793 226.945 189.958 230.129 187.09L228.79 185.604C225.907 188.201 222.304 189.863 218.457 190.37L218.719 192.353ZM206.334 190.228C210.152 192.172 214.47 192.913 218.719 192.353L218.457 190.37C214.61 190.878 210.699 190.207 207.241 188.446L206.334 190.228ZM197.33 181.463C199.376 185.228 202.515 188.284 206.334 190.228L207.241 188.446C203.783 186.685 200.94 183.917 199.088 180.508L197.33 181.463ZM196.381 179.477C196.662 180.152 196.979 180.816 197.33 181.463L199.088 180.508C198.769 179.922 198.482 179.321 198.228 178.709L196.381 179.477ZM185.763 169.191C190.696 169.707 194.274 174.404 196.381 179.477L198.228 178.709C196.073 173.523 192.086 167.842 185.971 167.202L185.763 169.191ZM177.059 177.033C176.376 172.361 180.696 168.66 185.763 169.191L185.971 167.202C179.989 166.575 174.156 171.003 175.08 177.322L177.059 177.033ZM181.414 190.111C179.191 186.02 177.725 181.59 177.059 177.033L175.08 177.322C175.78 182.111 177.321 186.767 179.657 191.066L181.414 190.111ZM198.115 206.37C191.032 202.764 185.209 197.095 181.414 190.111L179.657 191.066C183.645 198.405 189.764 204.363 197.207 208.153L198.115 206.37ZM221.087 210.312C213.207 211.351 205.198 209.977 198.115 206.37L197.207 208.153C204.651 211.942 213.068 213.387 221.349 212.294L221.087 210.312ZM242.252 200.549C236.347 205.868 228.967 209.272 221.087 210.312L221.349 212.294C229.63 211.202 237.385 207.625 243.591 202.035L242.252 200.549ZM254.166 180.516C252.312 188.245 248.158 195.229 242.252 200.549L243.591 202.035C249.797 196.445 254.162 189.104 256.111 180.982L254.166 180.516ZM252.639 157.258C255.488 164.678 256.02 172.787 254.166 180.516L256.111 180.982C258.06 172.86 257.5 164.338 254.506 156.541L252.639 157.258ZM238.208 138.955C244.758 143.456 249.79 149.838 252.639 157.258L254.506 156.541C251.512 148.744 246.224 142.037 239.34 137.306L238.208 138.955ZM245.503 116.072H245.483V118.072H245.503V116.072ZM261.7 112.418C256.624 114.822 251.097 116.069 245.503 116.072L245.504 118.072C251.395 118.069 257.214 116.756 262.556 114.226L261.7 112.418ZM274.905 102.133C271.288 106.502 266.781 110.012 261.7 112.418L262.556 114.226C267.904 111.693 272.644 108.001 276.446 103.409L274.905 102.133ZM282.639 87.1229C281.162 92.642 278.523 97.7644 274.905 102.133L276.446 103.409C280.248 98.8167 283.02 93.4351 284.571 87.64L282.639 87.1229ZM283.455 70.1816C284.395 75.8221 284.117 81.6038 282.639 87.1229L284.571 87.64C286.122 81.8449 286.415 75.7747 285.428 69.8529L283.455 70.1816ZM277.2 54.469C280.38 59.1789 282.515 64.5411 283.455 70.1816L285.428 69.8529C284.441 63.931 282.199 58.2989 278.857 53.3497L277.2 54.469ZM265.044 42.912C269.87 45.8155 274.019 49.7592 277.2 54.469L278.857 53.3497C275.515 48.4005 271.153 44.2532 266.075 41.1982L265.044 42.912ZM249.255 37.6553C254.829 38.215 260.217 40.0086 265.044 42.912L266.075 41.1982C260.996 38.1433 255.324 36.2547 249.454 35.6653L249.255 37.6553ZM242.174 37.6116C244.524 37.4049 246.894 37.4183 249.255 37.6553L249.454 35.6653C246.969 35.4157 244.473 35.4017 241.999 35.6193L242.174 37.6116ZM236.592 47.7801C234.956 43.012 237.531 38.0201 242.174 37.6116L241.999 35.6193C235.696 36.1738 232.77 42.8039 234.701 48.4293L236.592 47.7801ZM237.095 49.2438L236.592 47.7801L234.701 48.4293L235.203 49.8929L237.095 49.2438ZM247.522 55.6826C242.926 55.2211 238.437 53.1552 237.095 49.2438L235.203 49.8929C236.937 54.946 242.488 57.1872 247.322 57.6726L247.522 55.6826ZM256.055 58.5231C253.448 56.955 250.536 55.9852 247.522 55.6826L247.322 57.6726C250.041 57.9455 252.669 58.8203 255.024 60.2369L256.055 58.5231ZM262.614 64.7585C260.9 62.2195 258.662 60.0912 256.055 58.5231L255.024 60.2369C257.379 61.6535 259.404 63.5782 260.957 65.8777L262.614 64.7585ZM265.985 73.2226C265.479 70.1859 264.329 67.2973 262.614 64.7585L260.957 65.8777C262.51 68.1773 263.553 70.796 264.012 73.5513L265.985 73.2226ZM265.545 82.3436C266.341 79.3718 266.491 76.2592 265.985 73.2226L264.012 73.5513C264.471 76.3065 264.335 79.1308 263.613 81.8266L265.545 82.3436ZM261.377 90.4319C263.328 88.0759 264.75 85.3155 265.545 82.3436L263.613 81.8266C262.892 84.5223 261.603 87.0237 259.837 89.1564L261.377 90.4319ZM254.249 95.9833C256.994 94.6829 259.427 92.7879 261.377 90.4319L259.837 89.1564C258.071 91.289 255.872 93.0016 253.393 94.1758L254.249 95.9833ZM245.524 97.9578C248.539 97.9517 251.516 97.2778 254.249 95.9833L253.393 94.1758C250.925 95.3446 248.239 95.9523 245.52 95.9578L245.524 97.9578ZM244.729 97.579C244.915 97.8092 245.203 97.9586 245.525 97.9578L245.519 95.9578C245.829 95.957 246.107 96.101 246.286 96.3227L244.729 97.579ZM244.503 96.9391C244.503 97.1818 244.589 97.405 244.728 97.5778L246.287 96.3239C246.42 96.4903 246.503 96.7054 246.503 96.9391H244.503ZM245.485 97.9205C244.943 97.9205 244.503 97.4814 244.503 96.9391H246.503C246.503 96.3763 246.047 95.9205 245.485 95.9205V97.9205ZM11.0757 97.9205H245.485V95.9205H11.0757V97.9205ZM2 106.996C2 101.984 6.06332 97.9205 11.0757 97.9205V95.9205C4.95875 95.9205 0 100.879 0 106.996H2ZM11.0757 116.072C6.06331 116.072 2 112.009 2 106.996H0C0 113.113 4.95874 118.072 11.0757 118.072V116.072ZM245.483 116.072H11.0757V118.072H245.483V116.072Z" fill="black" mask="url(#path-1-outside-1_36_124)"/>
</svg>
